<?xml version="1.0" standalone="no"?>
 <!DOCTYPE svg PUBLIC "-//W3C//DTD SVG 1.1//EN" 
 "http://www.w3.org/Graphics/SVG/1.1/DTD/svg11.dtd"> 
<svg
  xmlns:svg="http://www.w3.org/2000/svg"
  xmlns="http://www.w3.org/2000/svg"
  xmlns:xlink="http://www.w3.org/1999/xlink"
  version="1.1"
  width="29.700220cm" height="21.000720cm" viewBox="0 0 116930 82680">
<title>SVG Picture created as ds-brd.svg date 2020/09/04 15:20:09 </title>
  <desc>Picture generated by PCBNEW </desc>
<g style="fill:#000000; fill-opacity:1;stroke:#000000; stroke-opacity:1;
stroke-linecap:round; stroke-linejoin:round;"
 transform="translate(0 0) scale(1 1)">
</g>
<g style="fill:#000000; fill-opacity:0.0; 
stroke:#000000; stroke-width:-0.000393701; stroke-opacity:1; 
stroke-linecap:round; stroke-linejoin:round;">
</g>
<g style="fill:#000000; fill-opacity:0.0; 
stroke:#000000; stroke-width:39.3701; stroke-opacity:1; 
stroke-linecap:round; stroke-linejoin:round;">
</g>
<g style="fill:#000000; fill-opacity:0.0; 
stroke:#000000; stroke-width:59.0551; stroke-opacity:1; 
stroke-linecap:round; stroke-linejoin:round;">
<rect x="69685.9" y="65357.2" width="42519.7" height="12598.4" rx="0" />
</g>
<g style="fill:#000000; fill-opacity:0.0; 
stroke:#000000; stroke-width:39.3701; stroke-opacity:1; 
stroke-linecap:round; stroke-linejoin:round;">
</g>
<g style="fill:#000000; fill-opacity:0.0; 
stroke:#000000; stroke-width:59.0551; stroke-opacity:1; 
stroke-linecap:round; stroke-linejoin:round;">
<rect x="3937.01" y="3937.01" width="109056" height="74806" rx="0" />
</g>
<g style="fill:#000000; fill-opacity:0.0; 
stroke:#000000; stroke-width:39.3701; stroke-opacity:1; 
stroke-linecap:round; stroke-linejoin:round;">
</g>
<g style="fill:#000000; fill-opacity:0.0; 
stroke:#000000; stroke-width:59.0551; stroke-opacity:1; 
stroke-linecap:round; stroke-linejoin:round;">
<rect x="4724.41" y="4724.41" width="107481" height="73231.2" rx="0" />
</g>
<g style="fill:#000000; fill-opacity:0.0; 
stroke:#000000; stroke-width:39.3701; stroke-opacity:1; 
stroke-linecap:round; stroke-linejoin:round;">
</g>
<g style="fill:#000000; fill-opacity:0.0; 
stroke:#000000; stroke-width:59.0551; stroke-opacity:1; 
stroke-linecap:round; stroke-linejoin:round;">
<path d="M23622 4724
L23622 3937
" />
</g>
<g style="fill:#000000; fill-opacity:0.0; 
stroke:#000000; stroke-width:39.3701; stroke-opacity:1; 
stroke-linecap:round; stroke-linejoin:round;">
</g>
<g style="fill:#000000; fill-opacity:0.0; 
stroke:#000000; stroke-width:59.0551; stroke-opacity:1; 
stroke-linecap:round; stroke-linejoin:round;">
<path d="M43307 4724
L43307 3937
" />
</g>
<g style="fill:#000000; fill-opacity:0.0; 
stroke:#000000; stroke-width:39.3701; stroke-opacity:1; 
stroke-linecap:round; stroke-linejoin:round;">
</g>
<g style="fill:#000000; fill-opacity:0.0; 
stroke:#000000; stroke-width:59.0551; stroke-opacity:1; 
stroke-linecap:round; stroke-linejoin:round;">
<path d="M62992 4724
L62992 3937
" />
</g>
<g style="fill:#000000; fill-opacity:0.0; 
stroke:#000000; stroke-width:39.3701; stroke-opacity:1; 
stroke-linecap:round; stroke-linejoin:round;">
</g>
<g style="fill:#000000; fill-opacity:0.0; 
stroke:#000000; stroke-width:59.0551; stroke-opacity:1; 
stroke-linecap:round; stroke-linejoin:round;">
<path d="M82677 4724
L82677 3937
" />
</g>
<g style="fill:#000000; fill-opacity:0.0; 
stroke:#000000; stroke-width:39.3701; stroke-opacity:1; 
stroke-linecap:round; stroke-linejoin:round;">
</g>
<g style="fill:#000000; fill-opacity:0.0; 
stroke:#000000; stroke-width:59.0551; stroke-opacity:1; 
stroke-linecap:round; stroke-linejoin:round;">
<path d="M102362 4724
L102362 3937
" />
</g>
<g style="fill:#000000; fill-opacity:0.0; 
stroke:#000000; stroke-width:39.3701; stroke-opacity:1; 
stroke-linecap:round; stroke-linejoin:round;">
</g>
<g style="fill:#000000; fill-opacity:0.0; 
stroke:#000000; stroke-width:59.0551; stroke-opacity:1; 
stroke-linecap:round; stroke-linejoin:round;">
<text x="13779.5" y="4586.61"
textLength="539.439" font-size="682.415" lengthAdjust="spacingAndGlyphs"
text-anchor="start" opacity="0">1</text>
<path d="M14199 4562
L13906 4562
" />
<path d="M14052 4562
L14052 4050
L14004 4123
L13955 4172
L13906 4196
" />
</g>
<g style="fill:#000000; fill-opacity:0.0; 
stroke:#000000; stroke-width:39.3701; stroke-opacity:1; 
stroke-linecap:round; stroke-linejoin:round;">
</g>
<g style="fill:#000000; fill-opacity:0.0; 
stroke:#000000; stroke-width:59.0551; stroke-opacity:1; 
stroke-linecap:round; stroke-linejoin:round;">
<text x="33464.6" y="4586.61"
textLength="546.494" font-size="682.415" lengthAdjust="spacingAndGlyphs"
text-anchor="start" opacity="0">2</text>
<path d="M33591 4099
L33615 4074
L33664 4050
L33786 4050
L33835 4074
L33859 4099
L33884 4147
L33884 4196
L33859 4269
L33567 4562
L33884 4562
" />
</g>
<g style="fill:#000000; fill-opacity:0.0; 
stroke:#000000; stroke-width:39.3701; stroke-opacity:1; 
stroke-linecap:round; stroke-linejoin:round;">
</g>
<g style="fill:#000000; fill-opacity:0.0; 
stroke:#000000; stroke-width:59.0551; stroke-opacity:1; 
stroke-linecap:round; stroke-linejoin:round;">
<text x="53149.6" y="4586.61"
textLength="546.494" font-size="682.415" lengthAdjust="spacingAndGlyphs"
text-anchor="start" opacity="0">3</text>
<path d="M53252 4050
L53569 4050
L53398 4245
L53471 4245
L53520 4269
L53544 4294
L53569 4342
L53569 4464
L53544 4513
L53520 4537
L53471 4562
L53325 4562
L53276 4537
L53252 4513
" />
</g>
<g style="fill:#000000; fill-opacity:0.0; 
stroke:#000000; stroke-width:39.3701; stroke-opacity:1; 
stroke-linecap:round; stroke-linejoin:round;">
</g>
<g style="fill:#000000; fill-opacity:0.0; 
stroke:#000000; stroke-width:59.0551; stroke-opacity:1; 
stroke-linecap:round; stroke-linejoin:round;">
<text x="72834.6" y="4586.61"
textLength="546.494" font-size="682.415" lengthAdjust="spacingAndGlyphs"
text-anchor="start" opacity="0">4</text>
<path d="M73205 4221
L73205 4562
" />
<path d="M73083 4026
L72961 4391
L73278 4391
" />
</g>
<g style="fill:#000000; fill-opacity:0.0; 
stroke:#000000; stroke-width:39.3701; stroke-opacity:1; 
stroke-linecap:round; stroke-linejoin:round;">
</g>
<g style="fill:#000000; fill-opacity:0.0; 
stroke:#000000; stroke-width:59.0551; stroke-opacity:1; 
stroke-linecap:round; stroke-linejoin:round;">
<text x="92519.7" y="4586.61"
textLength="546.494" font-size="682.415" lengthAdjust="spacingAndGlyphs"
text-anchor="start" opacity="0">5</text>
<path d="M92914 4050
L92671 4050
L92646 4294
L92671 4269
L92719 4245
L92841 4245
L92890 4269
L92914 4294
L92939 4342
L92939 4464
L92914 4513
L92890 4537
L92841 4562
L92719 4562
L92671 4537
L92646 4513
" />
</g>
<g style="fill:#000000; fill-opacity:0.0; 
stroke:#000000; stroke-width:39.3701; stroke-opacity:1; 
stroke-linecap:round; stroke-linejoin:round;">
</g>
<g style="fill:#000000; fill-opacity:0.0; 
stroke:#000000; stroke-width:59.0551; stroke-opacity:1; 
stroke-linecap:round; stroke-linejoin:round;">
<text x="112205" y="4586.61"
textLength="546.494" font-size="682.415" lengthAdjust="spacingAndGlyphs"
text-anchor="start" opacity="0">6</text>
<path d="M112575 4050
L112477 4050
L112429 4074
L112404 4099
L112356 4172
L112331 4269
L112331 4464
L112356 4513
L112380 4537
L112429 4562
L112526 4562
L112575 4537
L112599 4513
L112624 4464
L112624 4342
L112599 4294
L112575 4269
L112526 4245
L112429 4245
L112380 4269
L112356 4294
L112331 4342
" />
</g>
<g style="fill:#000000; fill-opacity:0.0; 
stroke:#000000; stroke-width:39.3701; stroke-opacity:1; 
stroke-linecap:round; stroke-linejoin:round;">
</g>
<g style="fill:#000000; fill-opacity:0.0; 
stroke:#000000; stroke-width:59.0551; stroke-opacity:1; 
stroke-linecap:round; stroke-linejoin:round;">
<path d="M23622 77955
L23622 78742
" />
</g>
<g style="fill:#000000; fill-opacity:0.0; 
stroke:#000000; stroke-width:39.3701; stroke-opacity:1; 
stroke-linecap:round; stroke-linejoin:round;">
</g>
<g style="fill:#000000; fill-opacity:0.0; 
stroke:#000000; stroke-width:59.0551; stroke-opacity:1; 
stroke-linecap:round; stroke-linejoin:round;">
<path d="M43307 77955
L43307 78742
" />
</g>
<g style="fill:#000000; fill-opacity:0.0; 
stroke:#000000; stroke-width:39.3701; stroke-opacity:1; 
stroke-linecap:round; stroke-linejoin:round;">
</g>
<g style="fill:#000000; fill-opacity:0.0; 
stroke:#000000; stroke-width:59.0551; stroke-opacity:1; 
stroke-linecap:round; stroke-linejoin:round;">
<path d="M62992 77955
L62992 78742
" />
</g>
<g style="fill:#000000; fill-opacity:0.0; 
stroke:#000000; stroke-width:39.3701; stroke-opacity:1; 
stroke-linecap:round; stroke-linejoin:round;">
</g>
<g style="fill:#000000; fill-opacity:0.0; 
stroke:#000000; stroke-width:59.0551; stroke-opacity:1; 
stroke-linecap:round; stroke-linejoin:round;">
<path d="M82677 77955
L82677 78742
" />
</g>
<g style="fill:#000000; fill-opacity:0.0; 
stroke:#000000; stroke-width:39.3701; stroke-opacity:1; 
stroke-linecap:round; stroke-linejoin:round;">
</g>
<g style="fill:#000000; fill-opacity:0.0; 
stroke:#000000; stroke-width:59.0551; stroke-opacity:1; 
stroke-linecap:round; stroke-linejoin:round;">
<path d="M102362 77955
L102362 78742
" />
</g>
<g style="fill:#000000; fill-opacity:0.0; 
stroke:#000000; stroke-width:39.3701; stroke-opacity:1; 
stroke-linecap:round; stroke-linejoin:round;">
</g>
<g style="fill:#000000; fill-opacity:0.0; 
stroke:#000000; stroke-width:59.0551; stroke-opacity:1; 
stroke-linecap:round; stroke-linejoin:round;">
<text x="13779.5" y="78605.2"
textLength="546.494" font-size="682.415" lengthAdjust="spacingAndGlyphs"
text-anchor="start" opacity="0">1</text>
<path d="M14199 78580
L13906 78580
" />
<path d="M14052 78580
L14052 78069
L14004 78142
L13955 78190
L13906 78215
" />
</g>
<g style="fill:#000000; fill-opacity:0.0; 
stroke:#000000; stroke-width:39.3701; stroke-opacity:1; 
stroke-linecap:round; stroke-linejoin:round;">
</g>
<g style="fill:#000000; fill-opacity:0.0; 
stroke:#000000; stroke-width:59.0551; stroke-opacity:1; 
stroke-linecap:round; stroke-linejoin:round;">
<text x="33464.6" y="78605.2"
textLength="546.494" font-size="682.415" lengthAdjust="spacingAndGlyphs"
text-anchor="start" opacity="0">2</text>
<path d="M33591 78117
L33615 78093
L33664 78069
L33786 78069
L33835 78093
L33859 78117
L33884 78166
L33884 78215
L33859 78288
L33567 78580
L33884 78580
" />
</g>
<g style="fill:#000000; fill-opacity:0.0; 
stroke:#000000; stroke-width:39.3701; stroke-opacity:1; 
stroke-linecap:round; stroke-linejoin:round;">
</g>
<g style="fill:#000000; fill-opacity:0.0; 
stroke:#000000; stroke-width:59.0551; stroke-opacity:1; 
stroke-linecap:round; stroke-linejoin:round;">
<text x="53149.6" y="78605.2"
textLength="546.494" font-size="682.415" lengthAdjust="spacingAndGlyphs"
text-anchor="start" opacity="0">3</text>
<path d="M53252 78069
L53569 78069
L53398 78263
L53471 78263
L53520 78288
L53544 78312
L53569 78361
L53569 78483
L53544 78532
L53520 78556
L53471 78580
L53325 78580
L53276 78556
L53252 78532
" />
</g>
<g style="fill:#000000; fill-opacity:0.0; 
stroke:#000000; stroke-width:39.3701; stroke-opacity:1; 
stroke-linecap:round; stroke-linejoin:round;">
</g>
<g style="fill:#000000; fill-opacity:0.0; 
stroke:#000000; stroke-width:59.0551; stroke-opacity:1; 
stroke-linecap:round; stroke-linejoin:round;">
<text x="72834.6" y="78605.2"
textLength="546.494" font-size="682.415" lengthAdjust="spacingAndGlyphs"
text-anchor="start" opacity="0">4</text>
<path d="M73205 78239
L73205 78580
" />
<path d="M73083 78044
L72961 78410
L73278 78410
" />
</g>
<g style="fill:#000000; fill-opacity:0.0; 
stroke:#000000; stroke-width:39.3701; stroke-opacity:1; 
stroke-linecap:round; stroke-linejoin:round;">
</g>
<g style="fill:#000000; fill-opacity:0.0; 
stroke:#000000; stroke-width:59.0551; stroke-opacity:1; 
stroke-linecap:round; stroke-linejoin:round;">
<text x="92519.7" y="78605.2"
textLength="546.494" font-size="682.415" lengthAdjust="spacingAndGlyphs"
text-anchor="start" opacity="0">5</text>
<path d="M92914 78069
L92671 78069
L92646 78312
L92671 78288
L92719 78263
L92841 78263
L92890 78288
L92914 78312
L92939 78361
L92939 78483
L92914 78532
L92890 78556
L92841 78580
L92719 78580
L92671 78556
L92646 78532
" />
</g>
<g style="fill:#000000; fill-opacity:0.0; 
stroke:#000000; stroke-width:39.3701; stroke-opacity:1; 
stroke-linecap:round; stroke-linejoin:round;">
</g>
<g style="fill:#000000; fill-opacity:0.0; 
stroke:#000000; stroke-width:59.0551; stroke-opacity:1; 
stroke-linecap:round; stroke-linejoin:round;">
<text x="112205" y="78605.2"
textLength="546.494" font-size="682.415" lengthAdjust="spacingAndGlyphs"
text-anchor="start" opacity="0">6</text>
<path d="M112575 78069
L112477 78069
L112429 78093
L112404 78117
L112356 78190
L112331 78288
L112331 78483
L112356 78532
L112380 78556
L112429 78580
L112526 78580
L112575 78556
L112599 78532
L112624 78483
L112624 78361
L112599 78312
L112575 78288
L112526 78263
L112429 78263
L112380 78288
L112356 78312
L112331 78361
" />
</g>
<g style="fill:#000000; fill-opacity:0.0; 
stroke:#000000; stroke-width:39.3701; stroke-opacity:1; 
stroke-linecap:round; stroke-linejoin:round;">
</g>
<g style="fill:#000000; fill-opacity:0.0; 
stroke:#000000; stroke-width:59.0551; stroke-opacity:1; 
stroke-linecap:round; stroke-linejoin:round;">
<path d="M3937 23622
L4724 23622
" />
</g>
<g style="fill:#000000; fill-opacity:0.0; 
stroke:#000000; stroke-width:39.3701; stroke-opacity:1; 
stroke-linecap:round; stroke-linejoin:round;">
</g>
<g style="fill:#000000; fill-opacity:0.0; 
stroke:#000000; stroke-width:59.0551; stroke-opacity:1; 
stroke-linecap:round; stroke-linejoin:round;">
<path d="M3937 43307
L4724 43307
" />
</g>
<g style="fill:#000000; fill-opacity:0.0; 
stroke:#000000; stroke-width:39.3701; stroke-opacity:1; 
stroke-linecap:round; stroke-linejoin:round;">
</g>
<g style="fill:#000000; fill-opacity:0.0; 
stroke:#000000; stroke-width:59.0551; stroke-opacity:1; 
stroke-linecap:round; stroke-linejoin:round;">
<path d="M3937 62992
L4724 62992
" />
</g>
<g style="fill:#000000; fill-opacity:0.0; 
stroke:#000000; stroke-width:39.3701; stroke-opacity:1; 
stroke-linecap:round; stroke-linejoin:round;">
</g>
<g style="fill:#000000; fill-opacity:0.0; 
stroke:#000000; stroke-width:59.0551; stroke-opacity:1; 
stroke-linecap:round; stroke-linejoin:round;">
<text x="4330.71" y="14035.4"
textLength="497.75" font-size="682.415" lengthAdjust="spacingAndGlyphs"
text-anchor="middle" opacity="0">A</text>
<path d="M4208 13864
L4452 13864
" />
<path d="M4160 14011
L4330 13499
L4501 14011
" />
</g>
<g style="fill:#000000; fill-opacity:0.0; 
stroke:#000000; stroke-width:39.3701; stroke-opacity:1; 
stroke-linecap:round; stroke-linejoin:round;">
</g>
<g style="fill:#000000; fill-opacity:0.0; 
stroke:#000000; stroke-width:59.0551; stroke-opacity:1; 
stroke-linecap:round; stroke-linejoin:round;">
<text x="4330.71" y="33720.5"
textLength="570.866" font-size="682.415" lengthAdjust="spacingAndGlyphs"
text-anchor="middle" opacity="0">B</text>
<path d="M4367 33428
L4440 33452
L4464 33476
L4489 33525
L4489 33598
L4464 33647
L4440 33671
L4391 33696
L4196 33696
L4196 33184
L4367 33184
L4416 33208
L4440 33233
L4464 33281
L4464 33330
L4440 33379
L4416 33403
L4367 33428
L4196 33428
" />
</g>
<g style="fill:#000000; fill-opacity:0.0; 
stroke:#000000; stroke-width:39.3701; stroke-opacity:1; 
stroke-linecap:round; stroke-linejoin:round;">
</g>
<g style="fill:#000000; fill-opacity:0.0; 
stroke:#000000; stroke-width:59.0551; stroke-opacity:1; 
stroke-linecap:round; stroke-linejoin:round;">
<text x="4330.71" y="53405.5"
textLength="570.866" font-size="682.415" lengthAdjust="spacingAndGlyphs"
text-anchor="middle" opacity="0">C</text>
<path d="M4489 53332
L4464 53356
L4391 53381
L4342 53381
L4269 53356
L4221 53308
L4196 53259
L4172 53161
L4172 53088
L4196 52991
L4221 52942
L4269 52893
L4342 52869
L4391 52869
L4464 52893
L4489 52918
" />
</g>
<g style="fill:#000000; fill-opacity:0.0; 
stroke:#000000; stroke-width:39.3701; stroke-opacity:1; 
stroke-linecap:round; stroke-linejoin:round;">
</g>
<g style="fill:#000000; fill-opacity:0.0; 
stroke:#000000; stroke-width:59.0551; stroke-opacity:1; 
stroke-linecap:round; stroke-linejoin:round;">
<text x="4330.71" y="73090.6"
textLength="570.866" font-size="682.415" lengthAdjust="spacingAndGlyphs"
text-anchor="middle" opacity="0">D</text>
<path d="M4196 73066
L4196 72554
L4318 72554
L4391 72578
L4440 72627
L4464 72676
L4489 72773
L4489 72846
L4464 72944
L4440 72993
L4391 73041
L4318 73066
L4196 73066
" />
</g>
<g style="fill:#000000; fill-opacity:0.0; 
stroke:#000000; stroke-width:39.3701; stroke-opacity:1; 
stroke-linecap:round; stroke-linejoin:round;">
</g>
<g style="fill:#000000; fill-opacity:0.0; 
stroke:#000000; stroke-width:59.0551; stroke-opacity:1; 
stroke-linecap:round; stroke-linejoin:round;">
<path d="M112992 23622
L112205 23622
" />
</g>
<g style="fill:#000000; fill-opacity:0.0; 
stroke:#000000; stroke-width:39.3701; stroke-opacity:1; 
stroke-linecap:round; stroke-linejoin:round;">
</g>
<g style="fill:#000000; fill-opacity:0.0; 
stroke:#000000; stroke-width:59.0551; stroke-opacity:1; 
stroke-linecap:round; stroke-linejoin:round;">
<path d="M112992 43307
L112205 43307
" />
</g>
<g style="fill:#000000; fill-opacity:0.0; 
stroke:#000000; stroke-width:39.3701; stroke-opacity:1; 
stroke-linecap:round; stroke-linejoin:round;">
</g>
<g style="fill:#000000; fill-opacity:0.0; 
stroke:#000000; stroke-width:59.0551; stroke-opacity:1; 
stroke-linecap:round; stroke-linejoin:round;">
<path d="M112992 62992
L112205 62992
" />
</g>
<g style="fill:#000000; fill-opacity:0.0; 
stroke:#000000; stroke-width:39.3701; stroke-opacity:1; 
stroke-linecap:round; stroke-linejoin:round;">
</g>
<g style="fill:#000000; fill-opacity:0.0; 
stroke:#000000; stroke-width:59.0551; stroke-opacity:1; 
stroke-linecap:round; stroke-linejoin:round;">
<text x="112599" y="14035.4"
textLength="497.75" font-size="682.415" lengthAdjust="spacingAndGlyphs"
text-anchor="middle" opacity="0">A</text>
<path d="M112477 13864
L112721 13864
" />
<path d="M112428 14011
L112599 13499
L112769 14011
" />
</g>
<g style="fill:#000000; fill-opacity:0.0; 
stroke:#000000; stroke-width:39.3701; stroke-opacity:1; 
stroke-linecap:round; stroke-linejoin:round;">
</g>
<g style="fill:#000000; fill-opacity:0.0; 
stroke:#000000; stroke-width:59.0551; stroke-opacity:1; 
stroke-linecap:round; stroke-linejoin:round;">
<text x="112599" y="33720.5"
textLength="570.866" font-size="682.415" lengthAdjust="spacingAndGlyphs"
text-anchor="middle" opacity="0">B</text>
<path d="M112635 33428
L112708 33452
L112733 33476
L112757 33525
L112757 33598
L112733 33647
L112708 33671
L112660 33696
L112465 33696
L112465 33184
L112635 33184
L112684 33208
L112708 33233
L112733 33281
L112733 33330
L112708 33379
L112684 33403
L112635 33428
L112465 33428
" />
</g>
<g style="fill:#000000; fill-opacity:0.0; 
stroke:#000000; stroke-width:39.3701; stroke-opacity:1; 
stroke-linecap:round; stroke-linejoin:round;">
</g>
<g style="fill:#000000; fill-opacity:0.0; 
stroke:#000000; stroke-width:59.0551; stroke-opacity:1; 
stroke-linecap:round; stroke-linejoin:round;">
<text x="112599" y="53405.5"
textLength="570.866" font-size="682.415" lengthAdjust="spacingAndGlyphs"
text-anchor="middle" opacity="0">C</text>
<path d="M112757 53332
L112733 53356
L112660 53381
L112611 53381
L112538 53356
L112489 53308
L112465 53259
L112440 53161
L112440 53088
L112465 52991
L112489 52942
L112538 52893
L112611 52869
L112660 52869
L112733 52893
L112757 52918
" />
</g>
<g style="fill:#000000; fill-opacity:0.0; 
stroke:#000000; stroke-width:39.3701; stroke-opacity:1; 
stroke-linecap:round; stroke-linejoin:round;">
</g>
<g style="fill:#000000; fill-opacity:0.0; 
stroke:#000000; stroke-width:59.0551; stroke-opacity:1; 
stroke-linecap:round; stroke-linejoin:round;">
<text x="112599" y="73090.6"
textLength="570.866" font-size="682.415" lengthAdjust="spacingAndGlyphs"
text-anchor="middle" opacity="0">D</text>
<path d="M112465 73066
L112465 72554
L112587 72554
L112660 72578
L112708 72627
L112733 72676
L112757 72773
L112757 72846
L112733 72944
L112708 72993
L112660 73041
L112587 73066
L112465 73066
" />
</g>
<g style="fill:#000000; fill-opacity:0.0; 
stroke:#000000; stroke-width:39.3701; stroke-opacity:1; 
stroke-linecap:round; stroke-linejoin:round;">
</g>
<g style="fill:#000000; fill-opacity:0.0; 
stroke:#000000; stroke-width:59.0551; stroke-opacity:1; 
stroke-linecap:round; stroke-linejoin:round;">
<text x="78741" y="76321.7"
textLength="2758.72" font-size="787.402" lengthAdjust="spacingAndGlyphs"
text-anchor="start" opacity="0">Date: </text>
<path d="M78911 76293
L78911 75703
L79051 75703
L79136 75731
L79192 75787
L79220 75843
L79248 75956
L79248 76040
L79220 76153
L79192 76209
L79136 76265
L79051 76293
L78911 76293
" />
<path d="M79754 76293
L79754 75984
L79726 75928
L79670 75899
L79557 75899
L79501 75928
" />
<path d="M79754 76265
L79698 76293
L79557 76293
L79501 76265
L79473 76209
L79473 76153
L79501 76096
L79557 76068
L79698 76068
L79754 76040
" />
<path d="M79951 75899
L80176 75899
" />
<path d="M80036 75703
L80036 76209
L80064 76265
L80120 76293
L80176 76293
" />
<path d="M80598 76265
L80542 76293
L80429 76293
L80373 76265
L80345 76209
L80345 75984
L80373 75928
L80429 75899
L80542 75899
L80598 75928
L80626 75984
L80626 76040
L80345 76096
" />
<path d="M80879 76237
L80907 76265
L80879 76293
L80851 76265
L80879 76237
L80879 76293
" />
<path d="M80879 75928
L80907 75956
L80879 75984
L80851 75956
L80879 75928
L80879 75984
" />
</g>
<g style="fill:#000000; fill-opacity:0.0; 
stroke:#000000; stroke-width:39.3701; stroke-opacity:1; 
stroke-linecap:round; stroke-linejoin:round;">
</g>
<g style="fill:#000000; fill-opacity:0.0; 
stroke:#000000; stroke-width:59.0551; stroke-opacity:1; 
stroke-linecap:round; stroke-linejoin:round;">
<path d="M69685 76577
L112205 76577
" />
</g>
<g style="fill:#000000; fill-opacity:0.0; 
stroke:#000000; stroke-width:39.3701; stroke-opacity:1; 
stroke-linecap:round; stroke-linejoin:round;">
</g>
<g style="fill:#000000; fill-opacity:0.0; 
stroke:#000000; stroke-width:59.0551; stroke-opacity:1; 
stroke-linecap:round; stroke-linejoin:round;">
<text x="70079.6" y="77424.1"
textLength="16960.1" font-size="787.402" lengthAdjust="spacingAndGlyphs"
text-anchor="start" opacity="0">KiCad E.D.A.  kicad (5.1.6-0-10_14)</text>
<path d="M70249 77395
L70249 76805
" />
<path d="M70587 77395
L70334 77058
" />
<path d="M70587 76805
L70249 77142
" />
<path d="M70840 77395
L70840 77002
" />
<path d="M70840 76805
L70812 76833
L70840 76861
L70868 76833
L70840 76805
L70840 76861
" />
<path d="M71458 77339
L71430 77367
L71346 77395
L71290 77395
L71205 77367
L71149 77311
L71121 77255
L71093 77142
L71093 77058
L71121 76946
L71149 76889
L71205 76833
L71290 76805
L71346 76805
L71430 76833
L71458 76861
" />
<path d="M71965 77395
L71965 77086
L71937 77030
L71880 77002
L71768 77002
L71712 77030
" />
<path d="M71965 77367
L71908 77395
L71768 77395
L71712 77367
L71683 77311
L71683 77255
L71712 77199
L71768 77171
L71908 77171
L71965 77142
" />
<path d="M72499 77395
L72499 76805
" />
<path d="M72499 77367
L72443 77395
L72330 77395
L72274 77367
L72246 77339
L72218 77283
L72218 77114
L72246 77058
L72274 77030
L72330 77002
L72443 77002
L72499 77030
" />
<path d="M73230 77086
L73427 77086
" />
<path d="M73511 77395
L73230 77395
L73230 76805
L73511 76805
" />
<path d="M73764 77339
L73793 77367
L73764 77395
L73736 77367
L73764 77339
L73764 77395
" />
<path d="M74046 77395
L74046 76805
L74186 76805
L74271 76833
L74327 76889
L74355 76946
L74383 77058
L74383 77142
L74355 77255
L74327 77311
L74271 77367
L74186 77395
L74046 77395
" />
<path d="M74636 77339
L74664 77367
L74636 77395
L74608 77367
L74636 77339
L74636 77395
" />
<path d="M74889 77227
L75171 77227
" />
<path d="M74833 77395
L75030 76805
L75227 77395
" />
<path d="M75424 77339
L75452 77367
L75424 77395
L75395 77367
L75424 77339
L75424 77395
" />
<path d="M76605 77395
L76605 76805
" />
<path d="M76661 77171
L76830 77395
" />
<path d="M76830 77002
L76605 77227
" />
<path d="M77083 77395
L77083 77002
" />
<path d="M77083 76805
L77055 76833
L77083 76861
L77111 76833
L77083 76805
L77083 76861
" />
<path d="M77617 77367
L77561 77395
L77448 77395
L77392 77367
L77364 77339
L77336 77283
L77336 77114
L77364 77058
L77392 77030
L77448 77002
L77561 77002
L77617 77030
" />
<path d="M78123 77395
L78123 77086
L78095 77030
L78039 77002
L77926 77002
L77870 77030
" />
<path d="M78123 77367
L78067 77395
L77926 77395
L77870 77367
L77842 77311
L77842 77255
L77870 77199
L77926 77171
L78067 77171
L78123 77142
" />
<path d="M78658 77395
L78658 76805
" />
<path d="M78658 77367
L78601 77395
L78489 77395
L78433 77367
L78404 77339
L78376 77283
L78376 77114
L78404 77058
L78433 77030
L78489 77002
L78601 77002
L78658 77030
" />
<path d="M79557 77620
L79529 77592
L79473 77508
L79445 77452
L79417 77367
L79389 77227
L79389 77114
L79417 76974
L79445 76889
L79473 76833
L79529 76749
L79557 76721
" />
<path d="M80064 76805
L79782 76805
L79754 77086
L79782 77058
L79839 77030
L79979 77030
L80036 77058
L80064 77086
L80092 77142
L80092 77283
L80064 77339
L80036 77367
L79979 77395
L79839 77395
L79782 77367
L79754 77339
" />
<path d="M80345 77339
L80373 77367
L80345 77395
L80317 77367
L80345 77339
L80345 77395
" />
<path d="M80935 77395
L80598 77395
" />
<path d="M80767 77395
L80767 76805
L80710 76889
L80654 76946
L80598 76974
" />
<path d="M81188 77339
L81217 77367
L81188 77395
L81160 77367
L81188 77339
L81188 77395
" />
<path d="M81723 76805
L81610 76805
L81554 76833
L81526 76861
L81470 76946
L81442 77058
L81442 77283
L81470 77339
L81498 77367
L81554 77395
L81667 77395
L81723 77367
L81751 77339
L81779 77283
L81779 77142
L81751 77086
L81723 77058
L81667 77030
L81554 77030
L81498 77058
L81470 77086
L81442 77142
" />
<path d="M82032 77171
L82482 77171
" />
<path d="M82876 76805
L82932 76805
L82988 76833
L83016 76861
L83045 76917
L83073 77030
L83073 77171
L83045 77283
L83016 77339
L82988 77367
L82932 77395
L82876 77395
L82820 77367
L82791 77339
L82763 77283
L82735 77171
L82735 77030
L82763 76917
L82791 76861
L82820 76833
L82876 76805
" />
<path d="M83326 77171
L83776 77171
" />
<path d="M84366 77395
L84029 77395
" />
<path d="M84197 77395
L84197 76805
L84141 76889
L84085 76946
L84029 76974
" />
<path d="M84732 76805
L84788 76805
L84844 76833
L84872 76861
L84901 76917
L84929 77030
L84929 77171
L84901 77283
L84872 77339
L84844 77367
L84788 77395
L84732 77395
L84676 77367
L84647 77339
L84619 77283
L84591 77171
L84591 77030
L84619 76917
L84647 76861
L84676 76833
L84732 76805
" />
<path d="M85041 77452
L85491 77452
" />
<path d="M85941 77395
L85604 77395
" />
<path d="M85772 77395
L85772 76805
L85716 76889
L85660 76946
L85604 76974
" />
<path d="M86447 77002
L86447 77395
" />
<path d="M86307 76777
L86166 77199
L86532 77199
" />
<path d="M86700 77620
L86728 77592
L86785 77508
L86813 77452
L86841 77367
L86869 77227
L86869 77114
L86841 76974
L86813 76889
L86785 76833
L86728 76749
L86700 76721
" />
</g>
<g style="fill:#000000; fill-opacity:0.0; 
stroke:#000000; stroke-width:39.3701; stroke-opacity:1; 
stroke-linecap:round; stroke-linejoin:round;">
</g>
<g style="fill:#000000; fill-opacity:0.0; 
stroke:#000000; stroke-width:59.0551; stroke-opacity:1; 
stroke-linecap:round; stroke-linejoin:round;">
<path d="M69685 75396
L112205 75396
" />
</g>
<g style="fill:#000000; fill-opacity:0.0; 
stroke:#000000; stroke-width:39.3701; stroke-opacity:1; 
stroke-linecap:round; stroke-linejoin:round;">
</g>
<g style="fill:#000000; fill-opacity:0.0; 
stroke:#000000; stroke-width:118.11; stroke-opacity:1; 
stroke-linecap:round; stroke-linejoin:round;">
<text x="103544" y="76321.7"
textLength="2336.9" font-size="787.402" lengthAdjust="spacingAndGlyphs"
text-anchor="start" opacity="0">Rev: </text>
<path d="M104099 76293
L103902 76012
" />
<path d="M103761 76293
L103761 75703
L103986 75703
L104042 75731
L104070 75759
L104099 75815
L104099 75899
L104070 75956
L104042 75984
L103986 76012
L103761 76012
" />
<path d="M104577 76265
L104520 76293
L104408 76293
L104352 76265
L104323 76209
L104323 75984
L104352 75928
L104408 75899
L104520 75899
L104577 75928
L104605 75984
L104605 76040
L104323 76096
" />
<path d="M104802 75899
L104942 76293
L105083 75899
" />
<path d="M105308 76237
L105336 76265
L105308 76293
L105280 76265
L105308 76237
L105308 76293
" />
<path d="M105308 75928
L105336 75956
L105308 75984
L105280 75956
L105308 75928
L105308 75984
" />
</g>
<g style="fill:#000000; fill-opacity:0.0; 
stroke:#000000; stroke-width:39.3701; stroke-opacity:1; 
stroke-linecap:round; stroke-linejoin:round;">
</g>
<g style="fill:#000000; fill-opacity:0.0; 
stroke:#000000; stroke-width:59.0551; stroke-opacity:1; 
stroke-linecap:round; stroke-linejoin:round;">
<text x="70079.6" y="76321.7"
textLength="3781.21" font-size="787.402" lengthAdjust="spacingAndGlyphs"
text-anchor="start" opacity="0">Size: A4</text>
<path d="M70221 76265
L70305 76293
L70446 76293
L70502 76265
L70530 76237
L70559 76181
L70559 76124
L70530 76068
L70502 76040
L70446 76012
L70334 75984
L70277 75956
L70249 75928
L70221 75871
L70221 75815
L70249 75759
L70277 75731
L70334 75703
L70474 75703
L70559 75731
" />
<path d="M70812 76293
L70812 75899
" />
<path d="M70812 75703
L70784 75731
L70812 75759
L70840 75731
L70812 75703
L70812 75759
" />
<path d="M71037 75899
L71346 75899
L71037 76293
L71346 76293
" />
<path d="M71796 76265
L71740 76293
L71627 76293
L71571 76265
L71543 76209
L71543 75984
L71571 75928
L71627 75899
L71740 75899
L71796 75928
L71824 75984
L71824 76040
L71543 76096
" />
<path d="M72077 76237
L72105 76265
L72077 76293
L72049 76265
L72077 76237
L72077 76293
" />
<path d="M72077 75928
L72105 75956
L72077 75984
L72049 75956
L72077 75928
L72077 75984
" />
<path d="M72780 76124
L73061 76124
" />
<path d="M72724 76293
L72921 75703
L73118 76293
" />
<path d="M73568 75899
L73568 76293
" />
<path d="M73427 75674
L73286 76096
L73652 76096
" />
</g>
<g style="fill:#000000; fill-opacity:0.0; 
stroke:#000000; stroke-width:39.3701; stroke-opacity:1; 
stroke-linecap:round; stroke-linejoin:round;">
</g>
<g style="fill:#000000; fill-opacity:0.0; 
stroke:#000000; stroke-width:59.0551; stroke-opacity:1; 
stroke-linecap:round; stroke-linejoin:round;">
<text x="103544" y="77424.1"
textLength="3349.27" font-size="787.402" lengthAdjust="spacingAndGlyphs"
text-anchor="start" opacity="0">Id: 1/1</text>
<path d="M103714 77395
L103714 76805
" />
<path d="M104248 77395
L104248 76805
" />
<path d="M104248 77367
L104192 77395
L104079 77395
L104023 77367
L103995 77339
L103967 77283
L103967 77114
L103995 77058
L104023 77030
L104079 77002
L104192 77002
L104248 77030
" />
<path d="M104529 77339
L104557 77367
L104529 77395
L104501 77367
L104529 77339
L104529 77395
" />
<path d="M104529 77030
L104557 77058
L104529 77086
L104501 77058
L104529 77030
L104529 77086
" />
<path d="M105570 77395
L105232 77395
" />
<path d="M105401 77395
L105401 76805
L105345 76889
L105289 76946
L105232 76974
" />
<path d="M106245 76777
L105739 77536
" />
<path d="M106751 77395
L106413 77395
" />
<path d="M106582 77395
L106582 76805
L106526 76889
L106470 76946
L106413 76974
" />
</g>
<g style="fill:#000000; fill-opacity:0.0; 
stroke:#000000; stroke-width:39.3701; stroke-opacity:1; 
stroke-linecap:round; stroke-linejoin:round;">
</g>
<g style="fill:#000000; fill-opacity:0.0; 
stroke:#000000; stroke-width:59.0551; stroke-opacity:1; 
stroke-linecap:round; stroke-linejoin:round;">
<path d="M69685 73821
L112205 73821
" />
</g>
<g style="fill:#000000; fill-opacity:0.0; 
stroke:#000000; stroke-width:39.3701; stroke-opacity:1; 
stroke-linecap:round; stroke-linejoin:round;">
</g>
<g style="fill:#000000; fill-opacity:0.0; 
stroke:#000000; stroke-width:157.48; stroke-opacity:1; 
stroke-linecap:round; stroke-linejoin:round;">
<text x="70079.6" y="74924.1"
textLength="3701.14" font-size="1049.87" lengthAdjust="spacingAndGlyphs"
text-anchor="start" opacity="0">Title: </text>
<path d="M70360 74099
L70810 74099
" />
<path d="M70486 74886
L70585 74099
" />
<path d="M70974 74886
L71039 74361
" />
<path d="M71072 74099
L71030 74136
L71063 74174
L71105 74136
L71072 74099
L71063 74174
" />
<path d="M71302 74361
L71602 74361
" />
<path d="M71447 74099
L71363 74774
L71391 74849
L71461 74886
L71536 74886
" />
<path d="M71911 74886
L71841 74849
L71813 74774
L71897 74099
" />
<path d="M72516 74849
L72436 74886
L72286 74886
L72216 74849
L72187 74774
L72225 74474
L72272 74399
L72352 74361
L72501 74361
L72572 74399
L72600 74474
L72591 74549
L72206 74624
" />
<path d="M72895 74811
L72928 74849
L72886 74886
L72853 74849
L72895 74811
L72886 74886
" />
<path d="M72947 74399
L72980 74436
L72937 74474
L72905 74436
L72947 74399
L72937 74474
" />
</g>
<g style="fill:#000000; fill-opacity:0.0; 
stroke:#000000; stroke-width:39.3701; stroke-opacity:1; 
stroke-linecap:round; stroke-linejoin:round;">
</g>
<g style="fill:#000000; fill-opacity:0.0; 
stroke:#000000; stroke-width:59.0551; stroke-opacity:1; 
stroke-linecap:round; stroke-linejoin:round;">
<text x="70079.6" y="73408.3"
textLength="8191.23" font-size="787.402" lengthAdjust="spacingAndGlyphs"
text-anchor="start" opacity="0">File: ds.kicad_pcb</text>
<path d="M70446 73070
L70249 73070
" />
<path d="M70249 73380
L70249 72789
L70530 72789
" />
<path d="M70755 73380
L70755 72986
" />
<path d="M70755 72789
L70727 72817
L70755 72845
L70784 72817
L70755 72789
L70755 72845
" />
<path d="M71121 73380
L71065 73352
L71037 73295
L71037 72789
" />
<path d="M71571 73352
L71515 73380
L71402 73380
L71346 73352
L71318 73295
L71318 73070
L71346 73014
L71402 72986
L71515 72986
L71571 73014
L71599 73070
L71599 73127
L71318 73183
" />
<path d="M71852 73323
L71880 73352
L71852 73380
L71824 73352
L71852 73323
L71852 73380
" />
<path d="M71852 73014
L71880 73042
L71852 73070
L71824 73042
L71852 73014
L71852 73070
" />
<path d="M72836 73380
L72836 72789
" />
<path d="M72836 73352
L72780 73380
L72668 73380
L72611 73352
L72583 73323
L72555 73267
L72555 73099
L72583 73042
L72611 73014
L72668 72986
L72780 72986
L72836 73014
" />
<path d="M73090 73352
L73146 73380
L73258 73380
L73314 73352
L73343 73295
L73343 73267
L73314 73211
L73258 73183
L73174 73183
L73118 73155
L73090 73099
L73090 73070
L73118 73014
L73174 72986
L73258 72986
L73314 73014
" />
<path d="M73596 73323
L73624 73352
L73596 73380
L73568 73352
L73596 73323
L73596 73380
" />
<path d="M73877 73380
L73877 72789
" />
<path d="M73933 73155
L74102 73380
" />
<path d="M74102 72986
L73877 73211
" />
<path d="M74355 73380
L74355 72986
" />
<path d="M74355 72789
L74327 72817
L74355 72845
L74383 72817
L74355 72789
L74355 72845
" />
<path d="M74889 73352
L74833 73380
L74721 73380
L74664 73352
L74636 73323
L74608 73267
L74608 73099
L74636 73042
L74664 73014
L74721 72986
L74833 72986
L74889 73014
" />
<path d="M75395 73380
L75395 73070
L75367 73014
L75311 72986
L75199 72986
L75142 73014
" />
<path d="M75395 73352
L75339 73380
L75199 73380
L75142 73352
L75114 73295
L75114 73239
L75142 73183
L75199 73155
L75339 73155
L75395 73127
" />
<path d="M75930 73380
L75930 72789
" />
<path d="M75930 73352
L75874 73380
L75761 73380
L75705 73352
L75677 73323
L75649 73267
L75649 73099
L75677 73042
L75705 73014
L75761 72986
L75874 72986
L75930 73014
" />
<path d="M76070 73436
L76520 73436
" />
<path d="M76661 72986
L76661 73577
" />
<path d="M76661 73014
L76717 72986
L76830 72986
L76886 73014
L76914 73042
L76942 73099
L76942 73267
L76914 73323
L76886 73352
L76830 73380
L76717 73380
L76661 73352
" />
<path d="M77448 73352
L77392 73380
L77280 73380
L77223 73352
L77195 73323
L77167 73267
L77167 73099
L77195 73042
L77223 73014
L77280 72986
L77392 72986
L77448 73014
" />
<path d="M77701 73380
L77701 72789
" />
<path d="M77701 73014
L77758 72986
L77870 72986
L77926 73014
L77955 73042
L77983 73099
L77983 73267
L77955 73323
L77926 73352
L77870 73380
L77758 73380
L77701 73352
" />
</g>
<g style="fill:#000000; fill-opacity:0.0; 
stroke:#000000; stroke-width:39.3701; stroke-opacity:1; 
stroke-linecap:round; stroke-linejoin:round;">
</g>
<g style="fill:#000000; fill-opacity:0.0; 
stroke:#000000; stroke-width:59.0551; stroke-opacity:1; 
stroke-linecap:round; stroke-linejoin:round;">
<path d="M69685 71459
L112205 71459
" />
</g>
<g style="fill:#000000; fill-opacity:0.0; 
stroke:#000000; stroke-width:39.3701; stroke-opacity:1; 
stroke-linecap:round; stroke-linejoin:round;">
</g>
<g style="fill:#000000; fill-opacity:0.0; 
stroke:#000000; stroke-width:59.0551; stroke-opacity:1; 
stroke-linecap:round; stroke-linejoin:round;">
<text x="70079.6" y="72345.4"
textLength="3236.78" font-size="787.402" lengthAdjust="spacingAndGlyphs"
text-anchor="start" opacity="0">Sheet: </text>
<path d="M70221 72289
L70305 72317
L70446 72317
L70502 72289
L70530 72260
L70559 72204
L70559 72148
L70530 72092
L70502 72064
L70446 72036
L70334 72007
L70277 71979
L70249 71951
L70221 71895
L70221 71839
L70249 71782
L70277 71754
L70334 71726
L70474 71726
L70559 71754
" />
<path d="M70812 72317
L70812 71726
" />
<path d="M71065 72317
L71065 72007
L71037 71951
L70980 71923
L70896 71923
L70840 71951
L70812 71979
" />
<path d="M71571 72289
L71515 72317
L71402 72317
L71346 72289
L71318 72232
L71318 72007
L71346 71951
L71402 71923
L71515 71923
L71571 71951
L71599 72007
L71599 72064
L71318 72120
" />
<path d="M72077 72289
L72021 72317
L71908 72317
L71852 72289
L71824 72232
L71824 72007
L71852 71951
L71908 71923
L72021 71923
L72077 71951
L72105 72007
L72105 72064
L71824 72120
" />
<path d="M72274 71923
L72499 71923
" />
<path d="M72358 71726
L72358 72232
L72386 72289
L72443 72317
L72499 72317
" />
<path d="M72696 72260
L72724 72289
L72696 72317
L72668 72289
L72696 72260
L72696 72317
" />
<path d="M72696 71951
L72724 71979
L72696 72007
L72668 71979
L72696 71951
L72696 72007
" />
</g>
<g style="fill:#000000; fill-opacity:0.0; 
stroke:#000000; stroke-width:39.3701; stroke-opacity:1; 
stroke-linecap:round; stroke-linejoin:round;">
</g>
<g style="fill:#000000; fill-opacity:0.0; 
stroke:#000000; stroke-width:59.0551; stroke-opacity:1; 
stroke-linecap:round; stroke-linejoin:round;">
<path d="M77559 75396
L77559 76577
" />
</g>
<g style="fill:#000000; fill-opacity:0.0; 
stroke:#000000; stroke-width:39.3701; stroke-opacity:1; 
stroke-linecap:round; stroke-linejoin:round;">
</g>
<g style="fill:#000000; fill-opacity:0.0; 
stroke:#000000; stroke-width:59.0551; stroke-opacity:1; 
stroke-linecap:round; stroke-linejoin:round;">
<path d="M102756 75396
L102756 77955
" />
</g>
<g style="fill:#840084; fill-opacity:0.0; 
stroke:#840084; stroke-width:59.0551; stroke-opacity:1; 
stroke-linecap:round; stroke-linejoin:round;">
</g>
<g style="fill:#840084; fill-opacity:0.0; 
stroke:#840084; stroke-width:50; stroke-opacity:1; 
stroke-linecap:round; stroke-linejoin:round;">
<circle cx="37500" cy="53000" r="250" /> 
<path d="M37500 53250
L37500 52750
" />
<path d="M37750 53000
L37250 53000
" />
<path d="M38500 52500
L38100 52500
" />
<path d="M38100 52500
L37500 52500
" />
<path d="M37500 52500
L36900 52500
" />
<path d="M36900 52500
L36500 52500
" />
<path d="M36500 52500
L36500 53500
" />
<path d="M37500 53500
L38500 53500
" />
<path d="M38500 53500
L38500 52500
" />
<path d="M37500 52500
L37500 53500
" />
<path d="M37500 53500
L36500 53500
" />
<path d="M38500 52500
L38500 52000
" />
<path d="M38500 52000
L38100 52000
" />
<path d="M38100 52000
L36900 52000
" />
<path d="M36900 52000
L36500 52000
" />
<path d="M36500 52000
L36500 52150
" />
<path d="M36500 52150
L36500 52500
" />
<path d="M38100 52500
L38100 52000
" />
<path d="M36900 52500
L36900 52000
" />
<path d="M38100 52500
L38100 52000
" />
</g>
<g style="fill:#840084; fill-opacity:1.0; 
stroke:#840084; stroke-width:0; stroke-opacity:1; 
stroke-linecap:round; stroke-linejoin:round;">
<path style="fill:#840084; fill-opacity:1.0; 
stroke:#840084; stroke-width:0; stroke-opacity:1; 
stroke-linecap:round; stroke-linejoin:round;fill-rule:evenodd;"
d="M 24700,41655.9
26100,41655.9
26100,41505.9
24700,41505.9
" /> 
<path style="fill:#840084; fill-opacity:1.0; 
stroke:#840084; stroke-width:0; stroke-opacity:1; 
stroke-linecap:round; stroke-linejoin:round;fill-rule:evenodd;"
d="M 24700,38105.9
26100,38105.9
26100,37955.9
24700,37955.9
" /> 
</g>
<g style="fill:#840084; fill-opacity:1.0; 
stroke:#840084; stroke-width:50; stroke-opacity:1; 
stroke-linecap:round; stroke-linejoin:round;">
</g>
<g style="fill:#840084; fill-opacity:0.0; 
stroke:#840084; stroke-width:50; stroke-opacity:1; 
stroke-linecap:round; stroke-linejoin:round;">
<path d="M27000 42055
L27400 41655
" />
<path d="M27400 41655
L27400 40305
" />
<path d="M27400 38055
L27400 39305
" />
<path d="M23400 41655
L23400 40305
" />
<path d="M23400 38055
L23400 39305
" />
<circle cx="25400" cy="39805.9" r="250" /> 
<path d="M23800 43055
L23800 42055
" />
<path d="M27000 43055
L23800 43055
" />
<path d="M27000 42055
L27000 43055
" />
<path d="M23800 42055
L27000 42055
" />
<path d="M25400 39656
L25400 39943
" />
<path d="M25256 39800
L25543 39800
" />
<path d="M23400 41655
L23800 42055
" />
<path d="M23400 38055
L23650 37805
" />
<path d="M27150 37805
L27400 38055
" />
<path d="M23650 37805
L27150 37805
" />
<circle cx="25400" cy="39800" r="1250" /> 
</g>
<g style="fill:#840084; fill-opacity:1.0; 
stroke:#840084; stroke-width:0; stroke-opacity:1; 
stroke-linecap:round; stroke-linejoin:round;">
<path style="fill:#840084; fill-opacity:1.0; 
stroke:#840084; stroke-width:0; stroke-opacity:1; 
stroke-linecap:round; stroke-linejoin:round;fill-rule:evenodd;"
d="M 37700,41600
39100,41600
39100,41450
37700,41450
" /> 
<path style="fill:#840084; fill-opacity:1.0; 
stroke:#840084; stroke-width:0; stroke-opacity:1; 
stroke-linecap:round; stroke-linejoin:round;fill-rule:evenodd;"
d="M 37700,38050
39100,38050
39100,37900
37700,37900
" /> 
</g>
<g style="fill:#840084; fill-opacity:1.0; 
stroke:#840084; stroke-width:50; stroke-opacity:1; 
stroke-linecap:round; stroke-linejoin:round;">
</g>
<g style="fill:#840084; fill-opacity:0.0; 
stroke:#840084; stroke-width:50; stroke-opacity:1; 
stroke-linecap:round; stroke-linejoin:round;">
<path d="M40000 42000
L40400 41600
" />
<path d="M40400 41600
L40400 40250
" />
<path d="M40400 38000
L40400 39250
" />
<path d="M36400 41600
L36400 40250
" />
<path d="M36400 38000
L36400 39250
" />
<circle cx="38400" cy="39750" r="250" /> 
<path d="M36800 43000
L36800 42000
" />
<path d="M40000 43000
L36800 43000
" />
<path d="M40000 42000
L40000 43000
" />
<path d="M36800 42000
L40000 42000
" />
<path d="M38400 39600
L38400 39887
" />
<path d="M38256 39744
L38543 39744
" />
<path d="M36400 41600
L36800 42000
" />
<path d="M36400 38000
L36650 37750
" />
<path d="M40150 37750
L40400 38000
" />
<path d="M36650 37750
L40150 37750
" />
<circle cx="38400" cy="39744.1" r="1250" /> 
<path d="M31650 39800
L32150 39800
" />
<path d="M31900 40050
L31900 39550
" />
</g>
<g style="fill:#840084; fill-opacity:0.0; 
stroke:#840084; stroke-width:60; stroke-opacity:1; 
stroke-linecap:round; stroke-linejoin:round;">
<path d="M29400 40450
L29400 40700
" />
<path d="M29400 40700
L34400 40700
" />
<path d="M34400 40700
L34400 40450
" />
<path d="M34400 40450
L34650 40450
" />
<path d="M34650 40450
L34650 39150
" />
<path d="M34650 39150
L34400 39150
" />
<path d="M34400 39150
L34400 38900
" />
<path d="M34400 38900
L29400 38900
" />
<path d="M29400 38900
L29400 39150
" />
<path d="M29400 39150
L29150 39150
" />
<path d="M29150 39150
L29150 40450
" />
<path d="M29150 40450
L29400 40450
" />
</g>
<g style="fill:#840084; fill-opacity:0.0; 
stroke:#840084; stroke-width:50; stroke-opacity:1; 
stroke-linecap:round; stroke-linejoin:round;">
<circle cx="31900" cy="39800" r="250" /> 
<path d="M31650 27400
L32150 27400
" />
<path d="M31900 27650
L31900 27150
" />
</g>
<g style="fill:#840084; fill-opacity:0.0; 
stroke:#840084; stroke-width:60; stroke-opacity:1; 
stroke-linecap:round; stroke-linejoin:round;">
<path d="M29400 28050
L29400 28300
" />
<path d="M29400 28300
L34400 28300
" />
<path d="M34400 28300
L34400 28050
" />
<path d="M34400 28050
L34650 28050
" />
<path d="M34650 28050
L34650 26750
" />
<path d="M34650 26750
L34400 26750
" />
<path d="M34400 26750
L34400 26500
" />
<path d="M34400 26500
L29400 26500
" />
<path d="M29400 26500
L29400 26750
" />
<path d="M29400 26750
L29150 26750
" />
<path d="M29150 26750
L29150 28050
" />
<path d="M29150 28050
L29400 28050
" />
</g>
<g style="fill:#840084; fill-opacity:0.0; 
stroke:#840084; stroke-width:50; stroke-opacity:1; 
stroke-linecap:round; stroke-linejoin:round;">
<circle cx="31900" cy="27400" r="250" /> 
</g>
<g style="fill:#840084; fill-opacity:0.0; 
stroke:#840084; stroke-width:60; stroke-opacity:1; 
stroke-linecap:round; stroke-linejoin:round;">
<path d="M34900 51600
L28900 51600
" />
<path d="M28900 51600
L28900 57600
" />
<path d="M28900 57600
L34900 57600
" />
<path d="M34900 57600
L34900 51600
" />
</g>
<g style="fill:#840084; fill-opacity:0.0; 
stroke:#840084; stroke-width:50; stroke-opacity:1; 
stroke-linecap:round; stroke-linejoin:round;">
<path d="M31900 54350
L31900 54850
" />
<path d="M31650 54600
L32150 54600
" />
<circle cx="31900" cy="54600" r="250" /> 
</g>
<g style="fill:#840084; fill-opacity:1.0; 
stroke:#840084; stroke-width:0; stroke-opacity:1; 
stroke-linecap:round; stroke-linejoin:round;">
<path style="fill:#840084; fill-opacity:1.0; 
stroke:#840084; stroke-width:0; stroke-opacity:1; 
stroke-linecap:round; stroke-linejoin:round;fill-rule:evenodd;"
d="M 24700,29300
26100,29300
26100,29150
24700,29150
" /> 
<path style="fill:#840084; fill-opacity:1.0; 
stroke:#840084; stroke-width:0; stroke-opacity:1; 
stroke-linecap:round; stroke-linejoin:round;fill-rule:evenodd;"
d="M 24700,25750
26100,25750
26100,25600
24700,25600
" /> 
</g>
<g style="fill:#840084; fill-opacity:1.0; 
stroke:#840084; stroke-width:50; stroke-opacity:1; 
stroke-linecap:round; stroke-linejoin:round;">
</g>
<g style="fill:#840084; fill-opacity:0.0; 
stroke:#840084; stroke-width:50; stroke-opacity:1; 
stroke-linecap:round; stroke-linejoin:round;">
<path d="M27000 29700
L27400 29300
" />
<path d="M27400 29300
L27400 27950
" />
<path d="M27400 25700
L27400 26950
" />
<path d="M23400 29300
L23400 27950
" />
<path d="M23400 25700
L23400 26950
" />
<circle cx="25400" cy="27450" r="250" /> 
<path d="M23800 30700
L23800 29700
" />
<path d="M27000 30700
L23800 30700
" />
<path d="M27000 29700
L27000 30700
" />
<path d="M23800 29700
L27000 29700
" />
<path d="M25400 27300
L25400 27587
" />
<path d="M25256 27444
L25543 27444
" />
<path d="M23400 29300
L23800 29700
" />
<path d="M23400 25700
L23650 25450
" />
<path d="M27150 25450
L27400 25700
" />
<path d="M23650 25450
L27150 25450
" />
<circle cx="25400" cy="27444.1" r="1250" /> 
</g>
<g style="fill:#840084; fill-opacity:1.0; 
stroke:#840084; stroke-width:0; stroke-opacity:1; 
stroke-linecap:round; stroke-linejoin:round;">
<path style="fill:#840084; fill-opacity:1.0; 
stroke:#840084; stroke-width:0; stroke-opacity:1; 
stroke-linecap:round; stroke-linejoin:round;fill-rule:evenodd;"
d="M 37700,29300
39100,29300
39100,29150
37700,29150
" /> 
<path style="fill:#840084; fill-opacity:1.0; 
stroke:#840084; stroke-width:0; stroke-opacity:1; 
stroke-linecap:round; stroke-linejoin:round;fill-rule:evenodd;"
d="M 37700,25750
39100,25750
39100,25600
37700,25600
" /> 
</g>
<g style="fill:#840084; fill-opacity:1.0; 
stroke:#840084; stroke-width:50; stroke-opacity:1; 
stroke-linecap:round; stroke-linejoin:round;">
</g>
<g style="fill:#840084; fill-opacity:0.0; 
stroke:#840084; stroke-width:50; stroke-opacity:1; 
stroke-linecap:round; stroke-linejoin:round;">
<path d="M40000 29700
L40400 29300
" />
<path d="M40400 29300
L40400 27950
" />
<path d="M40400 25700
L40400 26950
" />
<path d="M36400 29300
L36400 27950
" />
<path d="M36400 25700
L36400 26950
" />
<circle cx="38400" cy="27450" r="250" /> 
<path d="M36800 30700
L36800 29700
" />
<path d="M40000 30700
L36800 30700
" />
<path d="M40000 29700
L40000 30700
" />
<path d="M36800 29700
L40000 29700
" />
<path d="M38400 27300
L38400 27587
" />
<path d="M38256 27444
L38543 27444
" />
<path d="M36400 29300
L36800 29700
" />
<path d="M36400 25700
L36650 25450
" />
<path d="M40150 25450
L40400 25700
" />
<path d="M36650 25450
L40150 25450
" />
<circle cx="38400" cy="27444.1" r="1250" /> 
</g>
<g style="fill:#840084; fill-opacity:1.0; 
stroke:#840084; stroke-width:0; stroke-opacity:1; 
stroke-linecap:round; stroke-linejoin:round;">
<path style="fill:#840084; fill-opacity:1.0; 
stroke:#840084; stroke-width:0; stroke-opacity:1; 
stroke-linecap:round; stroke-linejoin:round;fill-rule:evenodd;"
d="M 31200,35500
32600,35500
32600,35350
31200,35350
" /> 
<path style="fill:#840084; fill-opacity:1.0; 
stroke:#840084; stroke-width:0; stroke-opacity:1; 
stroke-linecap:round; stroke-linejoin:round;fill-rule:evenodd;"
d="M 31200,31950
32600,31950
32600,31800
31200,31800
" /> 
</g>
<g style="fill:#840084; fill-opacity:1.0; 
stroke:#840084; stroke-width:50; stroke-opacity:1; 
stroke-linecap:round; stroke-linejoin:round;">
</g>
<g style="fill:#840084; fill-opacity:0.0; 
stroke:#840084; stroke-width:50; stroke-opacity:1; 
stroke-linecap:round; stroke-linejoin:round;">
<path d="M33500 35900
L33900 35500
" />
<path d="M33900 35500
L33900 34150
" />
<path d="M33900 31900
L33900 33150
" />
<path d="M29900 35500
L29900 34150
" />
<path d="M29900 31900
L29900 33150
" />
<circle cx="31900" cy="33650" r="250" /> 
<path d="M30300 36900
L30300 35900
" />
<path d="M33500 36900
L30300 36900
" />
<path d="M33500 35900
L33500 36900
" />
<path d="M30300 35900
L33500 35900
" />
<path d="M31900 33500
L31900 33787
" />
<path d="M31756 33644
L32043 33644
" />
<path d="M29900 35500
L30300 35900
" />
<path d="M29900 31900
L30150 31650
" />
<path d="M33650 31650
L33900 31900
" />
<path d="M30150 31650
L33650 31650
" />
<circle cx="31900" cy="33644.1" r="1250" /> 
</g>
<g style="fill:#840084; fill-opacity:0.0; 
stroke:#840084; stroke-width:60; stroke-opacity:1; 
stroke-linecap:round; stroke-linejoin:round;">
<path d="M33200 46500
L32200 46500
" />
<path d="M32200 46500
L32200 47500
" />
<path d="M32200 47500
L33200 47500
" />
<path d="M33200 47500
L33200 46500
" />
<path d="M33200 47500
L33200 48000
" />
<path d="M33200 48000
L32200 48000
" />
<path d="M32200 48000
L32200 47500
" />
<path d="M34600 46500
L33600 46500
" />
<path d="M33600 46500
L33600 47500
" />
<path d="M33600 47500
L34600 47500
" />
<path d="M34600 47500
L34600 46500
" />
<path d="M34600 47500
L34600 48000
" />
<path d="M34600 48000
L33600 48000
" />
<path d="M33600 48000
L33600 47500
" />
<path d="M31600 49800
L30600 49800
" />
<path d="M30600 49800
L30600 50800
" />
<path d="M30600 50800
L31600 50800
" />
<path d="M31600 50800
L31600 49800
" />
<path d="M31600 50800
L31600 51300
" />
<path d="M31600 51300
L30600 51300
" />
<path d="M30600 51300
L30600 50800
" />
<path d="M36300 49900
L35300 49900
" />
<path d="M35300 49900
L35300 50900
" />
<path d="M35300 50900
L36300 50900
" />
<path d="M36300 50900
L36300 49900
" />
<path d="M36300 50900
L36300 51400
" />
<path d="M36300 51400
L35300 51400
" />
<path d="M35300 51400
L35300 50900
" />
<path d="M28700 49900
L27700 49900
" />
<path d="M27700 49900
L27700 50900
" />
<path d="M27700 50900
L28700 50900
" />
<path d="M28700 50900
L28700 49900
" />
<path d="M28700 50900
L28700 51400
" />
<path d="M28700 51400
L27700 51400
" />
<path d="M27700 51400
L27700 50900
" />
<path d="M34600 49800
L33600 49800
" />
<path d="M33600 49800
L33600 50800
" />
<path d="M33600 50800
L34600 50800
" />
<path d="M34600 50800
L34600 49800
" />
<path d="M34600 50800
L34600 51300
" />
<path d="M34600 51300
L33600 51300
" />
<path d="M33600 51300
L33600 50800
" />
<path d="M33200 49800
L32200 49800
" />
<path d="M32200 49800
L32200 50800
" />
<path d="M32200 50800
L33200 50800
" />
<path d="M33200 50800
L33200 49800
" />
<path d="M33200 50800
L33200 51300
" />
<path d="M33200 51300
L32200 51300
" />
<path d="M32200 51300
L32200 50800
" />
<path d="M30200 49800
L29200 49800
" />
<path d="M29200 49800
L29200 50800
" />
<path d="M29200 50800
L30200 50800
" />
<path d="M30200 50800
L30200 49800
" />
<path d="M30200 50800
L30200 51300
" />
<path d="M30200 51300
L29200 51300
" />
<path d="M29200 51300
L29200 50800
" />
<path d="M31600 46500
L30600 46500
" />
<path d="M30600 46500
L30600 47500
" />
<path d="M30600 47500
L31600 47500
" />
<path d="M31600 47500
L31600 46500
" />
<path d="M31600 47500
L31600 48000
" />
<path d="M31600 48000
L30600 48000
" />
<path d="M30600 48000
L30600 47500
" />
<path d="M30000 24900
L29000 24900
" />
<path d="M29000 24900
L29000 25900
" />
<path d="M29000 25900
L30000 25900
" />
<path d="M30000 25900
L30000 24900
" />
<path d="M30000 25900
L30000 26400
" />
<path d="M30000 26400
L29000 26400
" />
<path d="M29000 26400
L29000 25900
" />
<path d="M32400 24900
L31400 24900
" />
<path d="M31400 24900
L31400 25900
" />
<path d="M31400 25900
L32400 25900
" />
<path d="M32400 25900
L32400 24900
" />
<path d="M32400 25900
L32400 26400
" />
<path d="M32400 26400
L31400 26400
" />
<path d="M31400 26400
L31400 25900
" />
<path d="M35000 24900
L34000 24900
" />
<path d="M34000 24900
L34000 25900
" />
<path d="M34000 25900
L35000 25900
" />
<path d="M35000 25900
L35000 24900
" />
<path d="M35000 25900
L35000 26400
" />
<path d="M35000 26400
L34000 26400
" />
<path d="M34000 26400
L34000 25900
" />
<path d="M30200 46500
L29200 46500
" />
<path d="M29200 46500
L29200 47500
" />
<path d="M29200 47500
L30200 47500
" />
<path d="M30200 47500
L30200 46500
" />
<path d="M30200 47500
L30200 48000
" />
<path d="M30200 48000
L29200 48000
" />
<path d="M29200 48000
L29200 47500
" />
</g>
<g style="fill:#840084; fill-opacity:0.0; 
stroke:#840084; stroke-width:50; stroke-opacity:1; 
stroke-linecap:round; stroke-linejoin:round;">
<path d="M38850 41400
L38350 41400
" />
<path d="M38600 41650
L38600 41150
" />
<path d="M37600 42050
L37850 42050
" />
<path d="M37600 40750
L37600 42050
" />
<path d="M37850 40750
L37600 40750
" />
<path d="M39300 41900
L38000 41900
" />
<path d="M39300 40900
L38000 40900
" />
<path d="M39650 41600
L39650 41200
" />
<path d="M38000 41900 A150 150 0.0 0 0 37850 42050" />
<path d="M37850 40750 A150 150 0.0 0 0 38000 40900" />
<path d="M39650 41200 A325.96 325.96 0.0 0 0 39300 40900" />
<path d="M39300 41900 A325.961 325.961 0.0 0 0 39650 41600" />
<path d="M38350 40400
L38850 40400
" />
<path d="M38600 40150
L38600 40650
" />
<path d="M39600 39750
L39350 39750
" />
<path d="M39600 41050
L39600 39750
" />
<path d="M39350 41050
L39600 41050
" />
<path d="M37900 39900
L39200 39900
" />
<path d="M37900 40900
L39200 40900
" />
<path d="M37550 40200
L37550 40600
" />
<path d="M39200 39900 A150 150 0.0 0 0 39350 39750" />
<path d="M39350 41050 A150 150 0.0 0 0 39200 40900" />
<path d="M37550 40600 A325.96 325.96 0.0 0 0 37900 40900" />
<path d="M37900 39900 A325.961 325.961 0.0 0 0 37550 40200" />
</g>
<g style="fill:#840084; fill-opacity:0.0; 
stroke:#840084; stroke-width:25.6; stroke-opacity:1; 
stroke-linecap:round; stroke-linejoin:round;">
<text x="37500" y="52554"
textLength="534.469" font-size="405.333" lengthAdjust="spacingAndGlyphs"
text-anchor="end" opacity="0">D3</text>
<path d="M38037 52539
L38037 52235
L37965 52235
L37921 52250
L37893 52278
L37878 52307
L37864 52365
L37864 52409
L37878 52467
L37893 52496
L37921 52525
L37965 52539
L38037 52539
" />
<path d="M37762 52235
L37574 52235
L37675 52351
L37632 52351
L37603 52365
L37589 52380
L37574 52409
L37574 52481
L37589 52510
L37603 52525
L37632 52539
L37719 52539
L37748 52525
L37762 52510
" />
</g>
<g style="fill:#840084; fill-opacity:0.0; 
stroke:#840084; stroke-width:50; stroke-opacity:1; 
stroke-linecap:round; stroke-linejoin:round;">
<text x="31900" y="41475"
textLength="1414.34" font-size="633.333" lengthAdjust="spacingAndGlyphs"
text-anchor="start" opacity="0">SW2</text>
<path d="M31777 41429
L31709 41452
L31596 41452
L31550 41429
L31528 41407
L31505 41361
L31505 41316
L31528 41271
L31550 41248
L31596 41226
L31686 41203
L31731 41180
L31754 41158
L31777 41113
L31777 41067
L31754 41022
L31731 41000
L31686 40977
L31573 40977
L31505 41000
" />
<path d="M31347 40977
L31234 41452
L31143 41113
L31053 41452
L30940 40977
" />
<path d="M30781 41022
L30759 41000
L30713 40977
L30600 40977
L30555 41000
L30532 41022
L30510 41067
L30510 41113
L30532 41180
L30804 41452
L30510 41452
" />
<text x="31900" y="29075"
textLength="1382.62" font-size="633.333" lengthAdjust="spacingAndGlyphs"
text-anchor="start" opacity="0">SW1</text>
<path d="M31777 29029
L31709 29052
L31596 29052
L31550 29029
L31528 29007
L31505 28961
L31505 28916
L31528 28871
L31550 28848
L31596 28826
L31686 28803
L31731 28780
L31754 28758
L31777 28713
L31777 28667
L31754 28622
L31731 28600
L31686 28577
L31573 28577
L31505 28600
" />
<path d="M31347 28577
L31234 29052
L31143 28713
L31053 29052
L30940 28577
" />
<path d="M30510 29052
L30781 29052
" />
<path d="M30646 29052
L30646 28577
L30691 28645
L30736 28690
L30781 28713
" />
<g >
</g>
</g>
<g style="fill:#000000; fill-opacity:0.0; 
stroke:#000000; stroke-width:50; stroke-opacity:1; 
stroke-linecap:round; stroke-linejoin:round;">
</g>
<g style="fill:#C2C2C2; fill-opacity:0.0; 
stroke:#C2C2C2; stroke-width:50; stroke-opacity:1; 
stroke-linecap:round; stroke-linejoin:round;">
</g>
<g style="fill:#C2C2C2; fill-opacity:0.0; 
stroke:#C2C2C2; stroke-width:59.0551; stroke-opacity:1; 
stroke-linecap:round; stroke-linejoin:round;">
<g transform="rotate(-90 33711.8 14250)">
<text x="33711.8" y="14446.9"
textLength="3102.12" font-size="524.934" lengthAdjust="spacingAndGlyphs"
text-anchor="middle" opacity="0">7.366 mm</text>
</g>
<path d="M33496 15712
L33496 15449
L33889 15618
" />
<path d="M33852 15299
L33871 15281
L33889 15299
L33871 15318
L33852 15299
L33889 15299
" />
<path d="M33496 15149
L33496 14906
L33646 15037
L33646 14981
L33664 14943
L33683 14924
L33721 14906
L33814 14906
L33852 14924
L33871 14943
L33889 14981
L33889 15093
L33871 15131
L33852 15149
" />
<path d="M33496 14568
L33496 14643
L33514 14681
L33533 14699
L33589 14737
L33664 14756
L33814 14756
L33852 14737
L33871 14718
L33889 14681
L33889 14606
L33871 14568
L33852 14549
L33814 14531
L33721 14531
L33683 14549
L33664 14568
L33646 14606
L33646 14681
L33664 14718
L33683 14737
L33721 14756
" />
<path d="M33496 14193
L33496 14268
L33514 14306
L33533 14324
L33589 14362
L33664 14381
L33814 14381
L33852 14362
L33871 14343
L33889 14306
L33889 14231
L33871 14193
L33852 14175
L33814 14156
L33721 14156
L33683 14175
L33664 14193
L33646 14231
L33646 14306
L33664 14343
L33683 14362
L33721 14381
" />
<path d="M33889 13687
L33627 13687
" />
<path d="M33664 13687
L33646 13668
L33627 13631
L33627 13575
L33646 13537
L33683 13518
L33889 13518
" />
<path d="M33683 13518
L33646 13500
L33627 13462
L33627 13406
L33646 13368
L33683 13350
L33889 13350
" />
<path d="M33889 13162
L33627 13162
" />
<path d="M33664 13162
L33646 13143
L33627 13106
L33627 13050
L33646 13012
L33683 12993
L33889 12993
" />
<path d="M33683 12993
L33646 12975
L33627 12937
L33627 12881
L33646 12843
L33683 12825
L33889 12825
" />
<path d="M33200 15700
L33200 12800
" />
<path d="M31800 15700
L33430 15700
" />
<path d="M31800 12800
L33430 12800
" />
<path d="M33200 12800
L33430 13243
" />
<path d="M33200 12800
L32969 13243
" />
<path d="M33200 15700
L33430 15256
" />
<path d="M33200 15700
L32969 15256
" />
<g transform="rotate(-270 50411.8 47650)">
<text x="50411.8" y="47846.9"
textLength="3488.85" font-size="524.934" lengthAdjust="spacingAndGlyphs"
text-anchor="middle" opacity="0">25.146 mm</text>
</g>
<path d="M50589 46018
L50608 46037
L50627 46075
L50627 46168
L50608 46206
L50589 46225
L50552 46243
L50514 46243
L50458 46225
L50233 46000
L50233 46243
" />
<path d="M50627 46600
L50627 46412
L50439 46393
L50458 46412
L50477 46450
L50477 46543
L50458 46581
L50439 46600
L50402 46618
L50308 46618
L50271 46600
L50252 46581
L50233 46543
L50233 46450
L50252 46412
L50271 46393
" />
<path d="M50271 46787
L50252 46806
L50233 46787
L50252 46768
L50271 46787
L50233 46787
" />
<path d="M50233 47181
L50233 46956
" />
<path d="M50233 47068
L50627 47068
L50571 47031
L50533 46993
L50514 46956
" />
<path d="M50496 47518
L50233 47518
" />
<path d="M50646 47425
L50364 47331
L50364 47575
" />
<path d="M50627 47893
L50627 47818
L50608 47781
L50589 47762
L50533 47724
L50458 47706
L50308 47706
L50271 47724
L50252 47743
L50233 47781
L50233 47856
L50252 47893
L50271 47912
L50308 47931
L50402 47931
L50439 47912
L50458 47893
L50477 47856
L50477 47781
L50458 47743
L50439 47724
L50402 47706
" />
<path d="M50233 48399
L50496 48399
" />
<path d="M50458 48399
L50477 48418
L50496 48456
L50496 48512
L50477 48549
L50439 48568
L50233 48568
" />
<path d="M50439 48568
L50477 48587
L50496 48624
L50496 48681
L50477 48718
L50439 48737
L50233 48737
" />
<path d="M50233 48924
L50496 48924
" />
<path d="M50458 48924
L50477 48943
L50496 48981
L50496 49037
L50477 49074
L50439 49093
L50233 49093
" />
<path d="M50439 49093
L50477 49112
L50496 49149
L50496 49206
L50477 49243
L50439 49262
L50233 49262
" />
<path d="M49900 42700
L49900 52600
" />
<path d="M31900 42700
L50130 42700
" />
<path d="M31900 52600
L50130 52600
" />
<path d="M49900 52600
L49669 52156
" />
<path d="M49900 52600
L50130 52156
" />
<path d="M49900 42700
L49669 43143
" />
<path d="M49900 42700
L50130 43143
" />
<g transform="rotate(-270 51711.8 35050)">
<text x="51711.8" y="35246.9"
textLength="3488.85" font-size="524.934" lengthAdjust="spacingAndGlyphs"
text-anchor="middle" opacity="0">38.862 mm</text>
</g>
<path d="M51927 33400
L51927 33643
L51777 33512
L51777 33568
L51758 33606
L51739 33625
L51702 33643
L51608 33643
L51571 33625
L51552 33606
L51533 33568
L51533 33456
L51552 33418
L51571 33400
" />
<path d="M51758 33868
L51777 33831
L51796 33812
L51833 33793
L51852 33793
L51889 33812
L51908 33831
L51927 33868
L51927 33943
L51908 33981
L51889 34000
L51852 34018
L51833 34018
L51796 34000
L51777 33981
L51758 33943
L51758 33868
L51739 33831
L51721 33812
L51683 33793
L51608 33793
L51571 33812
L51552 33831
L51533 33868
L51533 33943
L51552 33981
L51571 34000
L51608 34018
L51683 34018
L51721 34000
L51739 33981
L51758 33943
" />
<path d="M51571 34187
L51552 34206
L51533 34187
L51552 34168
L51571 34187
L51533 34187
" />
<path d="M51758 34431
L51777 34393
L51796 34375
L51833 34356
L51852 34356
L51889 34375
L51908 34393
L51927 34431
L51927 34506
L51908 34543
L51889 34562
L51852 34581
L51833 34581
L51796 34562
L51777 34543
L51758 34506
L51758 34431
L51739 34393
L51721 34375
L51683 34356
L51608 34356
L51571 34375
L51552 34393
L51533 34431
L51533 34506
L51552 34543
L51571 34562
L51608 34581
L51683 34581
L51721 34562
L51739 34543
L51758 34506
" />
<path d="M51927 34918
L51927 34843
L51908 34806
L51889 34787
L51833 34750
L51758 34731
L51608 34731
L51571 34750
L51552 34768
L51533 34806
L51533 34881
L51552 34918
L51571 34937
L51608 34956
L51702 34956
L51739 34937
L51758 34918
L51777 34881
L51777 34806
L51758 34768
L51739 34750
L51702 34731
" />
<path d="M51889 35106
L51908 35124
L51927 35162
L51927 35256
L51908 35293
L51889 35312
L51852 35331
L51814 35331
L51758 35312
L51533 35087
L51533 35331
" />
<path d="M51533 35799
L51796 35799
" />
<path d="M51758 35799
L51777 35818
L51796 35856
L51796 35912
L51777 35949
L51739 35968
L51533 35968
" />
<path d="M51739 35968
L51777 35987
L51796 36024
L51796 36081
L51777 36118
L51739 36137
L51533 36137
" />
<path d="M51533 36324
L51796 36324
" />
<path d="M51758 36324
L51777 36343
L51796 36381
L51796 36437
L51777 36474
L51739 36493
L51533 36493
" />
<path d="M51739 36493
L51777 36512
L51796 36549
L51796 36606
L51777 36643
L51739 36662
L51533 36662
" />
<path d="M51200 27400
L51200 42700
" />
<path d="M31900 27400
L51430 27400
" />
<path d="M31900 42700
L51430 42700
" />
<path d="M51200 42700
L50969 42256
" />
<path d="M51200 42700
L51430 42256
" />
<path d="M51200 27400
L50969 27843
" />
<path d="M51200 27400
L51430 27843
" />
<g transform="rotate(-270 49011.8 38175)">
<text x="49011.8" y="38371.9"
textLength="3488.85" font-size="524.934" lengthAdjust="spacingAndGlyphs"
text-anchor="middle" opacity="0">22.987 mm</text>
</g>
<path d="M49189 36543
L49208 36562
L49227 36600
L49227 36693
L49208 36731
L49189 36750
L49152 36768
L49114 36768
L49058 36750
L48833 36525
L48833 36768
" />
<path d="M49189 36918
L49208 36937
L49227 36975
L49227 37068
L49208 37106
L49189 37125
L49152 37143
L49114 37143
L49058 37125
L48833 36900
L48833 37143
" />
<path d="M48871 37312
L48852 37331
L48833 37312
L48852 37293
L48871 37312
L48833 37312
" />
<path d="M48833 37518
L48833 37593
L48852 37631
L48871 37650
L48927 37687
L49002 37706
L49152 37706
L49189 37687
L49208 37668
L49227 37631
L49227 37556
L49208 37518
L49189 37500
L49152 37481
L49058 37481
L49021 37500
L49002 37518
L48983 37556
L48983 37631
L49002 37668
L49021 37687
L49058 37706
" />
<path d="M49058 37931
L49077 37893
L49096 37875
L49133 37856
L49152 37856
L49189 37875
L49208 37893
L49227 37931
L49227 38006
L49208 38043
L49189 38062
L49152 38081
L49133 38081
L49096 38062
L49077 38043
L49058 38006
L49058 37931
L49039 37893
L49021 37875
L48983 37856
L48908 37856
L48871 37875
L48852 37893
L48833 37931
L48833 38006
L48852 38043
L48871 38062
L48908 38081
L48983 38081
L49021 38062
L49039 38043
L49058 38006
" />
<path d="M49227 38212
L49227 38474
L48833 38306
" />
<path d="M48833 38924
L49096 38924
" />
<path d="M49058 38924
L49077 38943
L49096 38981
L49096 39037
L49077 39074
L49039 39093
L48833 39093
" />
<path d="M49039 39093
L49077 39112
L49096 39149
L49096 39206
L49077 39243
L49039 39262
L48833 39262
" />
<path d="M48833 39449
L49096 39449
" />
<path d="M49058 39449
L49077 39468
L49096 39506
L49096 39562
L49077 39599
L49039 39618
L48833 39618
" />
<path d="M49039 39618
L49077 39637
L49096 39674
L49096 39731
L49077 39768
L49039 39787
L48833 39787
" />
<path d="M48500 33650
L48500 42700
" />
<path d="M31900 33650
L48730 33650
" />
<path d="M31900 42700
L48730 42700
" />
<path d="M48500 42700
L48269 42256
" />
<path d="M48500 42700
L48730 42256
" />
<path d="M48500 33650
L48269 34093
" />
<path d="M48500 33650
L48730 34093
" />
<g transform="rotate(-90 47611.8 41250)">
<text x="47611.8" y="41446.9"
textLength="3113.89" font-size="524.934" lengthAdjust="spacingAndGlyphs"
text-anchor="middle" opacity="0">7.366 mm</text>
</g>
<path d="M47396 42712
L47396 42449
L47789 42618
" />
<path d="M47752 42299
L47771 42281
L47789 42299
L47771 42318
L47752 42299
L47789 42299
" />
<path d="M47396 42149
L47396 41906
L47546 42037
L47546 41981
L47564 41943
L47583 41924
L47621 41906
L47714 41906
L47752 41924
L47771 41943
L47789 41981
L47789 42093
L47771 42131
L47752 42149
" />
<path d="M47396 41568
L47396 41643
L47414 41681
L47433 41699
L47489 41737
L47564 41756
L47714 41756
L47752 41737
L47771 41718
L47789 41681
L47789 41606
L47771 41568
L47752 41549
L47714 41531
L47621 41531
L47583 41549
L47564 41568
L47546 41606
L47546 41681
L47564 41718
L47583 41737
L47621 41756
" />
<path d="M47396 41193
L47396 41268
L47414 41306
L47433 41324
L47489 41362
L47564 41381
L47714 41381
L47752 41362
L47771 41343
L47789 41306
L47789 41231
L47771 41193
L47752 41175
L47714 41156
L47621 41156
L47583 41175
L47564 41193
L47546 41231
L47546 41306
L47564 41343
L47583 41362
L47621 41381
" />
<path d="M47789 40687
L47527 40687
" />
<path d="M47564 40687
L47546 40668
L47527 40631
L47527 40575
L47546 40537
L47583 40518
L47789 40518
" />
<path d="M47583 40518
L47546 40500
L47527 40462
L47527 40406
L47546 40368
L47583 40350
L47789 40350
" />
<path d="M47789 40162
L47527 40162
" />
<path d="M47564 40162
L47546 40143
L47527 40106
L47527 40050
L47546 40012
L47583 39993
L47789 39993
" />
<path d="M47583 39993
L47546 39975
L47527 39937
L47527 39881
L47546 39843
L47583 39825
L47789 39825
" />
<path d="M47100 42700
L47100 39800
" />
<path d="M31900 42700
L47330 42700
" />
<path d="M31900 39800
L47330 39800
" />
<path d="M47100 39800
L47330 40243
" />
<path d="M47100 39800
L46869 40243
" />
<path d="M47100 42700
L47330 42256
" />
<path d="M47100 42700
L46869 42256
" />
<text x="35150" y="23385"
textLength="3488.85" font-size="524.934" lengthAdjust="spacingAndGlyphs"
text-anchor="middle" opacity="0">16.510 mm</text>
<path d="M33743 23366
L33518 23366
" />
<path d="M33631 23366
L33631 22972
L33593 23028
L33556 23066
L33518 23085
" />
<path d="M34081 22972
L34006 22972
L33968 22991
L33950 23010
L33912 23066
L33893 23141
L33893 23291
L33912 23328
L33931 23347
L33968 23366
L34043 23366
L34081 23347
L34100 23328
L34118 23291
L34118 23197
L34100 23160
L34081 23141
L34043 23122
L33968 23122
L33931 23141
L33912 23160
L33893 23197
" />
<path d="M34287 23328
L34306 23347
L34287 23366
L34268 23347
L34287 23328
L34287 23366
" />
<path d="M34662 22972
L34475 22972
L34456 23160
L34475 23141
L34512 23122
L34606 23122
L34643 23141
L34662 23160
L34681 23197
L34681 23291
L34662 23328
L34643 23347
L34606 23366
L34512 23366
L34475 23347
L34456 23328
" />
<path d="M35056 23366
L34831 23366
" />
<path d="M34943 23366
L34943 22972
L34906 23028
L34868 23066
L34831 23085
" />
<path d="M35299 22972
L35337 22972
L35374 22991
L35393 23010
L35412 23047
L35431 23122
L35431 23216
L35412 23291
L35393 23328
L35374 23347
L35337 23366
L35299 23366
L35262 23347
L35243 23328
L35224 23291
L35206 23216
L35206 23122
L35224 23047
L35243 23010
L35262 22991
L35299 22972
" />
<path d="M35899 23366
L35899 23103
" />
<path d="M35899 23141
L35918 23122
L35956 23103
L36012 23103
L36049 23122
L36068 23160
L36068 23366
" />
<path d="M36068 23160
L36087 23122
L36124 23103
L36181 23103
L36218 23122
L36237 23160
L36237 23366
" />
<path d="M36424 23366
L36424 23103
" />
<path d="M36424 23141
L36443 23122
L36481 23103
L36537 23103
L36574 23122
L36593 23160
L36593 23366
" />
<path d="M36593 23160
L36612 23122
L36649 23103
L36706 23103
L36743 23122
L36762 23160
L36762 23366
" />
<path d="M31900 23700
L38400 23700
" />
<path d="M31900 27400
L31900 23469
" />
<path d="M38400 27400
L38400 23469
" />
<path d="M38400 23700
L37956 23930
" />
<path d="M38400 23700
L37956 23469
" />
<path d="M31900 23700
L32343 23930
" />
<path d="M31900 23700
L32343 23469
" />
<text x="34700" y="61708.7"
textLength="3488.85" font-size="524.934" lengthAdjust="spacingAndGlyphs"
text-anchor="middle" opacity="0">14.224 mm</text>
<path d="M33293 61689
L33068 61689
" />
<path d="M33181 61689
L33181 61296
L33143 61352
L33106 61389
L33068 61408
" />
<path d="M33631 61427
L33631 61689
" />
<path d="M33537 61277
L33443 61558
L33687 61558
" />
<path d="M33837 61652
L33856 61671
L33837 61689
L33818 61671
L33837 61652
L33837 61689
" />
<path d="M34006 61333
L34025 61314
L34062 61296
L34156 61296
L34193 61314
L34212 61333
L34231 61371
L34231 61408
L34212 61464
L33987 61689
L34231 61689
" />
<path d="M34381 61333
L34400 61314
L34437 61296
L34531 61296
L34568 61314
L34587 61333
L34606 61371
L34606 61408
L34587 61464
L34362 61689
L34606 61689
" />
<path d="M34943 61427
L34943 61689
" />
<path d="M34849 61277
L34756 61558
L34999 61558
" />
<path d="M35449 61689
L35449 61427
" />
<path d="M35449 61464
L35468 61446
L35506 61427
L35562 61427
L35599 61446
L35618 61483
L35618 61689
" />
<path d="M35618 61483
L35637 61446
L35674 61427
L35731 61427
L35768 61446
L35787 61483
L35787 61689
" />
<path d="M35974 61689
L35974 61427
" />
<path d="M35974 61464
L35993 61446
L36031 61427
L36087 61427
L36124 61446
L36143 61483
L36143 61689
" />
<path d="M36143 61483
L36162 61446
L36199 61427
L36256 61427
L36293 61446
L36312 61483
L36312 61689
" />
<path d="M31900 61000
L37500 61000
" />
<path d="M31900 54600
L31900 61230
" />
<path d="M37500 54600
L37500 61230
" />
<path d="M37500 61000
L37056 61230
" />
<path d="M37500 61000
L37056 60769
" />
<path d="M31900 61000
L32343 61230
" />
<path d="M31900 61000
L32343 60769
" />
<g transform="rotate(-270 45111.8 50500)">
<text x="45111.8" y="50696.9"
textLength="3488.85" font-size="524.934" lengthAdjust="spacingAndGlyphs"
text-anchor="middle" opacity="0">39.624 mm</text>
</g>
<path d="M45327 48850
L45327 49093
L45177 48962
L45177 49018
L45158 49056
L45139 49075
L45102 49093
L45008 49093
L44971 49075
L44952 49056
L44933 49018
L44933 48906
L44952 48868
L44971 48850
" />
<path d="M44933 49281
L44933 49356
L44952 49393
L44971 49412
L45027 49450
L45102 49468
L45252 49468
L45289 49450
L45308 49431
L45327 49393
L45327 49318
L45308 49281
L45289 49262
L45252 49243
L45158 49243
L45121 49262
L45102 49281
L45083 49318
L45083 49393
L45102 49431
L45121 49450
L45158 49468
" />
<path d="M44971 49637
L44952 49656
L44933 49637
L44952 49618
L44971 49637
L44933 49637
" />
<path d="M45327 49993
L45327 49918
L45308 49881
L45289 49862
L45233 49825
L45158 49806
L45008 49806
L44971 49825
L44952 49843
L44933 49881
L44933 49956
L44952 49993
L44971 50012
L45008 50031
L45102 50031
L45139 50012
L45158 49993
L45177 49956
L45177 49881
L45158 49843
L45139 49825
L45102 49806
" />
<path d="M45289 50181
L45308 50200
L45327 50237
L45327 50331
L45308 50368
L45289 50387
L45252 50406
L45214 50406
L45158 50387
L44933 50162
L44933 50406
" />
<path d="M45196 50743
L44933 50743
" />
<path d="M45346 50649
L45064 50556
L45064 50799
" />
<path d="M44933 51249
L45196 51249
" />
<path d="M45158 51249
L45177 51268
L45196 51306
L45196 51362
L45177 51399
L45139 51418
L44933 51418
" />
<path d="M45139 51418
L45177 51437
L45196 51474
L45196 51531
L45177 51568
L45139 51587
L44933 51587
" />
<path d="M44933 51774
L45196 51774
" />
<path d="M45158 51774
L45177 51793
L45196 51831
L45196 51887
L45177 51924
L45139 51943
L44933 51943
" />
<path d="M45139 51943
L45177 51962
L45196 51999
L45196 52056
L45177 52093
L45139 52112
L44933 52112
" />
<path d="M44600 42700
L44600 58300
" />
<path d="M31900 42700
L44830 42700
" />
<path d="M31900 58300
L44830 58300
" />
<path d="M44600 58300
L44369 57856
" />
<path d="M44600 58300
L44830 57856
" />
<path d="M44600 42700
L44369 43143
" />
<path d="M44600 42700
L44830 43143
" />
<g transform="rotate(-270 46511.8 51300)">
<text x="46511.8" y="51496.9"
textLength="3488.85" font-size="524.934" lengthAdjust="spacingAndGlyphs"
text-anchor="middle" opacity="0">43.688 mm</text>
</g>
<path d="M46596 49856
L46333 49856
" />
<path d="M46746 49762
L46464 49668
L46464 49912
" />
<path d="M46727 50025
L46727 50268
L46577 50137
L46577 50193
L46558 50231
L46539 50250
L46502 50268
L46408 50268
L46371 50250
L46352 50231
L46333 50193
L46333 50081
L46352 50043
L46371 50025
" />
<path d="M46371 50437
L46352 50456
L46333 50437
L46352 50418
L46371 50437
L46333 50437
" />
<path d="M46727 50793
L46727 50718
L46708 50681
L46689 50662
L46633 50625
L46558 50606
L46408 50606
L46371 50625
L46352 50643
L46333 50681
L46333 50756
L46352 50793
L46371 50812
L46408 50831
L46502 50831
L46539 50812
L46558 50793
L46577 50756
L46577 50681
L46558 50643
L46539 50625
L46502 50606
" />
<path d="M46558 51056
L46577 51018
L46596 51000
L46633 50981
L46652 50981
L46689 51000
L46708 51018
L46727 51056
L46727 51131
L46708 51168
L46689 51187
L46652 51206
L46633 51206
L46596 51187
L46577 51168
L46558 51131
L46558 51056
L46539 51018
L46521 51000
L46483 50981
L46408 50981
L46371 51000
L46352 51018
L46333 51056
L46333 51131
L46352 51168
L46371 51187
L46408 51206
L46483 51206
L46521 51187
L46539 51168
L46558 51131
" />
<path d="M46558 51431
L46577 51393
L46596 51374
L46633 51356
L46652 51356
L46689 51374
L46708 51393
L46727 51431
L46727 51506
L46708 51543
L46689 51562
L46652 51581
L46633 51581
L46596 51562
L46577 51543
L46558 51506
L46558 51431
L46539 51393
L46521 51374
L46483 51356
L46408 51356
L46371 51374
L46352 51393
L46333 51431
L46333 51506
L46352 51543
L46371 51562
L46408 51581
L46483 51581
L46521 51562
L46539 51543
L46558 51506
" />
<path d="M46333 52049
L46596 52049
" />
<path d="M46558 52049
L46577 52068
L46596 52106
L46596 52162
L46577 52199
L46539 52218
L46333 52218
" />
<path d="M46539 52218
L46577 52237
L46596 52274
L46596 52331
L46577 52368
L46539 52387
L46333 52387
" />
<path d="M46333 52574
L46596 52574
" />
<path d="M46558 52574
L46577 52593
L46596 52631
L46596 52687
L46577 52724
L46539 52743
L46333 52743
" />
<path d="M46539 52743
L46577 52762
L46596 52799
L46596 52856
L46577 52893
L46539 52912
L46333 52912
" />
<path d="M46000 42700
L46000 59900
" />
<path d="M31900 42700
L46230 42700
" />
<path d="M31900 59900
L46230 59900
" />
<path d="M46000 59900
L45769 59456
" />
<path d="M46000 59900
L46230 59456
" />
<path d="M46000 42700
L45769 43143
" />
<path d="M46000 42700
L46230 43143
" />
</g>
<g style="fill:#C2C2C2; fill-opacity:0.0; 
stroke:#C2C2C2; stroke-width:19.685; stroke-opacity:1; 
stroke-linecap:round; stroke-linejoin:round;">
<circle cx="29787.4" cy="49000" r="23.622" /> 
<circle cx="28212.6" cy="49000" r="23.622" /> 
<circle cx="35787.4" cy="49000" r="23.622" /> 
<circle cx="34212.6" cy="49000" r="23.622" /> 
</g>
<g style="fill:#C2C2C2; fill-opacity:0.0; 
stroke:#C2C2C2; stroke-width:50; stroke-opacity:1; 
stroke-linecap:round; stroke-linejoin:round;">
<path d="M41053 63566
L31900 63566
" />
<path d="M31900 63566
L22746 63566
" />
<path d="M42628 61991
L42628 23408
" />
<path d="M21171 61991
L21171 23408
" />
<path d="M41053 21833
L31900 21833
" />
<path d="M31900 21833
L22746 21833
" />
<path d="M42234 64353
L21565 64353
" />
<path d="M43415 63172
L43415 22227
" />
<path d="M20384 63172
L20384 22227
" />
<path d="M42234 21046
L21565 21046
" />
<circle cx="42234.6" cy="63172.4" r="1181.1" /> 
<circle cx="42234.6" cy="63172.4" r="556.777" /> 
<circle cx="42234.6" cy="22227.6" r="1181.1" /> 
<circle cx="42234.6" cy="22227.6" r="556.777" /> 
<circle cx="21565.4" cy="22227.6" r="1181.1" /> 
<circle cx="21565.4" cy="22227.6" r="556.776" /> 
<circle cx="21565.4" cy="63172.4" r="1181.1" /> 
<circle cx="21565.4" cy="63172.4" r="556.776" /> 
<path d="M42628 61991
L42628 23408
" />
<path d="M20384 22227
L9754 22227
" />
<path d="M20384 63172
L9754 63172
" />
<path d="M9754 63172
L9754 22227
" />
<path d="M43415 63172
L54045 63172
" />
<path d="M43415 22227
L54045 22227
" />
<path d="M54045 22227
L54045 63172
" />
<path d="M42234 21046
L42234 10416
" />
<path d="M21565 21046
L21565 10416
" />
<path d="M21565 10416
L42234 10416
" />
<path d="M42234 74983
L42234 64353
" />
<path d="M21565 74983
L21565 64353
" />
<path d="M42234 74983
L21565 74983
" />
<path d="M31900 42700
L31900 22227
" />
<path d="M31900 22227
L40561 22227
" />
<path d="M31900 42700
L42234 42700
" />
<path d="M42234 42700
L42234 23900
" />
<path d="M31900 22227
L23238 22227
" />
<path d="M31900 42700
L21565 42700
" />
<path d="M21565 42700
L21565 23900
" />
<path d="M31900 63172
L31900 42700
" />
<path d="M31900 63172
L40561 63172
" />
<path d="M42234 61499
L42234 42700
" />
<path d="M23238 63172
L31900 63172
" />
<path d="M21565 61499
L21565 42700
" />
<circle cx="31900" cy="42700" r="393.701" /> 
<path d="M22746 63566
L31900 63566
" />
<path d="M31900 63566
L41053 63566
" />
<path d="M21171 61991
L21171 23408
" />
<path d="M42628 61991
L42628 23408
" />
<path d="M22746 21833
L31900 21833
" />
<path d="M31900 21833
L41053 21833
" />
<path d="M21565 64353
L42234 64353
" />
<path d="M20384 63172
L20384 22227
" />
<path d="M43415 63172
L43415 22227
" />
<path d="M21565 21046
L42234 21046
" />
<circle cx="21565.4" cy="63172.4" r="1181.1" /> 
<circle cx="21565.4" cy="63172.4" r="556.776" /> 
<circle cx="21565.4" cy="22227.6" r="1181.1" /> 
<circle cx="21565.4" cy="22227.6" r="556.776" /> 
<circle cx="42234.6" cy="22227.6" r="1181.1" /> 
<circle cx="42234.6" cy="22227.6" r="556.777" /> 
<circle cx="42234.6" cy="63172.4" r="1181.1" /> 
<circle cx="42234.6" cy="63172.4" r="556.777" /> 
<path d="M21171 61991
L21171 23408
" />
<path d="M43415 22227
L54045 22227
" />
<path d="M43415 63172
L54045 63172
" />
<path d="M54045 63172
L54045 22227
" />
<path d="M20384 63172
L9754 63172
" />
<path d="M20384 22227
L9754 22227
" />
<path d="M9754 22227
L9754 63172
" />
<path d="M21565 21046
L21565 10416
" />
<path d="M42234 21046
L42234 10416
" />
<path d="M42234 10416
L21565 10416
" />
<path d="M21565 74983
L21565 64353
" />
<path d="M42234 74983
L42234 64353
" />
<path d="M21565 74983
L42234 74983
" />
<path d="M31900 42700
L31900 22227
" />
<path d="M31900 22227
L23238 22227
" />
<path d="M31900 42700
L21565 42700
" />
<path d="M21565 42700
L21565 23900
" />
<path d="M31900 22227
L40561 22227
" />
<path d="M31900 42700
L42234 42700
" />
<path d="M42234 42700
L42234 23900
" />
<path d="M31900 63172
L31900 42700
" />
<path d="M31900 63172
L23238 63172
" />
<path d="M21565 61499
L21565 42700
" />
<path d="M40561 63172
L31900 63172
" />
<path d="M42234 61499
L42234 42700
" />
<circle cx="31900" cy="42700" r="393.701" /> 
<path d="M42234.6 61499.2 A1673.23 1673.23 0.0 0 0 40561.4 63172.4" />
<path d="M23238.6 63172.4 A1673.23 1673.23 0.0 0 0 21565.4 61499.2" />
<path d="M40561.4 22227.6 A1673.23 1673.23 0.0 0 0 42234.6 23900.8" />
<path d="M21565.4 23900.8 A1673.23 1673.23 0.0 0 0 23238.6 22227.6" />
<path d="M23238.6 63172.4 A1673.23 1673.23 0.0 0 0 21565.4 61499.2" />
<path d="M42234.6 61499.2 A1673.23 1673.23 0.0 0 0 40561.4 63172.4" />
<path d="M21565.4 23900.8 A1673.23 1673.23 0.0 0 0 23238.6 22227.6" />
<path d="M40561.4 22227.6 A1673.23 1673.23 0.0 0 0 42234.6 23900.8" />
</g>
<g style="fill:#C2C2C2; fill-opacity:0.0; 
stroke:#C2C2C2; stroke-width:200; stroke-opacity:1; 
stroke-linecap:round; stroke-linejoin:round;">
<path d="M35500 42500
L35470 42500
" />
<path d="M33500 42500
L33530 42500
" />
<path d="M39000 39400
L39000 39370
" />
<path d="M39000 37400
L39000 37430
" />
<path d="M33500 41500
L33530 41500
" />
<path d="M35500 41500
L35470 41500
" />
<path d="M38000 37400
L38000 37430
" />
<path d="M38000 39400
L38000 39370
" />
<path d="M30500 42500
L30530 42500
" />
<path d="M32500 42500
L32470 42500
" />
<path d="M32500 41500
L32470 41500
" />
<path d="M30500 41500
L30530 41500
" />
<path d="M27500 42500
L27530 42500
" />
<path d="M29500 42500
L29470 42500
" />
<path d="M29500 41500
L29470 41500
" />
<path d="M27500 41500
L27530 41500
" />
<path d="M27500 31500
L27500 31470
" />
<path d="M27500 29500
L27500 29530
" />
<g >
</g>
<g >
</g>
<g >
</g>
<g >
</g>
<g >
</g>
<g >
</g>
<g >
</g>
<g >
</g>
<g >
</g>
<g >
</g>
<g >
</g>
<g >
</g>
<g >
</g>
<g >
</g>
<g >
</g>
<g >
</g>
<g >
</g>
<g >
</g>
<g >
</g>
<g >
</g>
<g >
</g>
<g >
</g>
<g >
</g>
<g >
</g>
<g >
</g>
<g >
</g>
<g >
</g>
<g >
</g>
<g >
</g>
<g >
</g>
<g >
</g>
<g >
</g>
<g >
</g>
<g >
</g>
<g >
</g>
<g >
</g>
<g >
</g>
<g >
</g>
<g >
</g>
<g >
</g>
<g >
</g>
<g >
</g>
<g >
</g>
<g >
</g>
<g >
</g>
<g >
</g>
<g >
</g>
<g >
</g>
<g >
</g>
<g >
</g>
<g >
</g>
<g >
</g>
<g >
</g>
<g >
</g>
<g >
</g>
<g >
</g>
<g >
</g>
<g >
</g>
<g >
</g>
<g >
</g>
<g >
</g>
<g >
</g>
<g >
</g>
<g >
</g>
<g >
</g>
<g >
</g>
<g >
</g>
<g >
</g>
<g >
</g>
<g >
</g>
<g >
</g>
<g >
</g>
<g >
</g>
<g >
</g>
<g >
</g>
<g >
</g>
<g >
</g>
<g >
</g>
<g >
</g>
<g >
</g>
<g >
</g>
<g >
</g>
<g >
</g>
<g >
</g>
<g >
</g>
<g >
</g>
<g >
</g>
<g >
</g>
</g>
<g style="fill:#C2C2C2; fill-opacity:0.0; 
stroke:#C2C2C2; stroke-width:200; stroke-opacity:1; 
stroke-linecap:round; stroke-linejoin:round;">
</g>
<g style="fill:#C2C2C2; fill-opacity:0.0; 
stroke:#C2C2C2; stroke-width:40; stroke-opacity:1; 
stroke-linecap:round; stroke-linejoin:round;">
<text x="31900" y="64237.5"
textLength="2361.3" font-size="633.333" lengthAdjust="spacingAndGlyphs"
text-anchor="middle" opacity="0">1590B</text>
<path d="M31119 64214
L30848 64214
" />
<path d="M30983 64214
L30983 63739
L30938 63807
L30893 63852
L30848 63875
" />
<path d="M31549 63739
L31323 63739
L31300 63966
L31323 63943
L31368 63920
L31481 63920
L31526 63943
L31549 63966
L31572 64011
L31572 64124
L31549 64169
L31526 64192
L31481 64214
L31368 64214
L31323 64192
L31300 64169
" />
<path d="M31798 64214
L31888 64214
L31933 64192
L31956 64169
L32001 64101
L32024 64011
L32024 63830
L32001 63785
L31979 63762
L31933 63739
L31843 63739
L31798 63762
L31775 63785
L31752 63830
L31752 63943
L31775 63988
L31798 64011
L31843 64033
L31933 64033
L31979 64011
L32001 63988
L32024 63943
" />
<path d="M32318 63739
L32363 63739
L32408 63762
L32431 63785
L32454 63830
L32476 63920
L32476 64033
L32454 64124
L32431 64169
L32408 64192
L32363 64214
L32318 64214
L32273 64192
L32250 64169
L32227 64124
L32205 64033
L32205 63920
L32227 63830
L32250 63785
L32273 63762
L32318 63739
" />
<path d="M32838 63966
L32906 63988
L32929 64011
L32951 64056
L32951 64124
L32929 64169
L32906 64192
L32861 64214
L32680 64214
L32680 63739
L32838 63739
L32883 63762
L32906 63785
L32929 63830
L32929 63875
L32906 63920
L32883 63943
L32838 63966
L32680 63966
" />
<g >
</g>
</g>
<g style="fill:#000000; fill-opacity:0.0; 
stroke:#000000; stroke-width:40; stroke-opacity:1; 
stroke-linecap:round; stroke-linejoin:round;">
</g>
<g style="fill:#C2C200; fill-opacity:0.0; 
stroke:#C2C200; stroke-width:40; stroke-opacity:1; 
stroke-linecap:round; stroke-linejoin:round;">
</g>
<g style="fill:#C2C200; fill-opacity:0.0; 
stroke:#C2C200; stroke-width:19.685; stroke-opacity:1; 
stroke-linecap:round; stroke-linejoin:round;">
<path d="M39200 49800
L39200 57400
" />
<path d="M38800 57800
L25000 57800
" />
<path d="M24600 49800
L24600 57400
" />
<path d="M35800 49400
L38800 49400
" />
<path d="M29800 49400
L34200 49400
" />
<path d="M28200 49400
L25000 49400
" />
<path d="M41800 24400
L22000 24400
" />
<path d="M42200 48200
L42200 24800
" />
<path d="M21600 48200
L21600 24800
" />
<path d="M28200 48600
L22000 48600
" />
<path d="M34200 48600
L29800 48600
" />
<path d="M41800 48600
L35800 48600
" />
<path d="M28200 49400 A400 400 0.0 0 0 28200 48600" />
<path d="M29800 48600 A400 400 0.0 0 0 29800 49400" />
<path d="M34200 49400 A400 400 0.0 0 0 34200 48600" />
<path d="M35800 48600 A400 400 0.0 0 0 35800 49400" />
<path d="M38800 57800 A400 400 0.0 0 0 39200 57400" />
<path d="M24600 57400 A400 400 0.0 0 0 25000 57800" />
<path d="M25000 49400 A400 400 0.0 0 0 24600 49800" />
<path d="M39200 49800 A400 400 0.0 0 0 38800 49400" />
<path d="M41800 48600 A400 400 0.0 0 0 42200 48200" />
<path d="M21600 48200 A400 400 0.0 0 0 22000 48600" />
<path d="M22000 24400 A400 400 0.0 0 0 21600 24800" />
<path d="M42200 24800 A400 400 0.0 0 0 41800 24400" />
<g >
</g>
<g >
</g>
<g >
</g>
<g >
</g>
<g >
</g>
<g >
</g>
<g >
</g>
<g >
</g>
<g >
</g>
<g >
</g>
<g >
</g>
<g >
</g>
<g >
</g>
<g >
</g>
<g >
</g>
<g >
</g>
<g >
</g>
<g >
</g>
<g >
</g>
<g >
</g>
<g >
</g>
<g >
</g>
<g >
</g>
<g >
</g>
<g >
</g>
<g >
</g>
<g >
</g>
<g >
</g>
<g >
</g>
<g >
</g>
<g >
</g>
<g >
</g>
<g >
</g>
<g >
</g>
<g >
</g>
<g >
</g>
<g >
</g>
<g >
</g>
<g >
</g>
<g >
</g>
<g >
</g>
<g >
</g>
<g >
</g>
<g >
</g>
<g >
</g>
<g >
</g>
<g >
</g>
<g >
</g>
<g >
</g>
<g >
</g>
<g >
</g>
<g >
</g>
<g >
</g>
<g >
</g>
<g >
</g>
<g >
</g>
<g >
</g>
<g >
</g>
<g >
</g>
<g >
</g>
<g >
</g>
<g >
</g>
<g >
</g>
<g >
</g>
<g >
</g>
<g >
</g>
<g >
</g>
<g >
</g>
<g >
</g>
<g >
</g>
<g >
</g>
<g >
</g>
<g >
</g>
<g >
</g>
<g >
</g>
<g >
</g>
<g >
</g>
<g >
</g>
<g >
</g>
<g >
</g>
<g >
</g>
<g >
</g>
<g >
</g>
<g >
</g>
<g >
</g>
<g >
</g>
<g >
</g>
<g >
</g>
<g >
</g>
</g> 
</svg>
