G04 #@! TF.GenerationSoftware,KiCad,Pcbnew,(5.1.6-0-10_14)*
G04 #@! TF.CreationDate,2020-10-04T21:53:57+02:00*
G04 #@! TF.ProjectId,ds,64732e6b-6963-4616-945f-706362585858,rev?*
G04 #@! TF.SameCoordinates,Original*
G04 #@! TF.FileFunction,Legend,Bot*
G04 #@! TF.FilePolarity,Positive*
%FSLAX46Y46*%
G04 Gerber Fmt 4.6, Leading zero omitted, Abs format (unit mm)*
G04 Created by KiCad (PCBNEW (5.1.6-0-10_14)) date 2020-10-04 21:53:57*
%MOMM*%
%LPD*%
G01*
G04 APERTURE LIST*
%ADD10C,0.127000*%
%ADD11C,0.100000*%
%ADD12C,0.152400*%
%ADD13C,0.065024*%
G04 APERTURE END LIST*
D10*
X95885000Y-134620000D02*
G75*
G03*
X95885000Y-134620000I-635000J0D01*
G01*
X95250000Y-135255000D02*
X95250000Y-133985000D01*
X95885000Y-134620000D02*
X94615000Y-134620000D01*
X97790000Y-133350000D02*
X96774000Y-133350000D01*
X96774000Y-133350000D02*
X95250000Y-133350000D01*
X95250000Y-133350000D02*
X93726000Y-133350000D01*
X93726000Y-133350000D02*
X92710000Y-133350000D01*
X92710000Y-133350000D02*
X92710000Y-135890000D01*
X95250000Y-135890000D02*
X97790000Y-135890000D01*
X97790000Y-135890000D02*
X97790000Y-133350000D01*
X95250000Y-133350000D02*
X95250000Y-135890000D01*
X95250000Y-135890000D02*
X92710000Y-135890000D01*
X97790000Y-133350000D02*
X97790000Y-132080000D01*
X97790000Y-132080000D02*
X96774000Y-132080000D01*
X96774000Y-132080000D02*
X93726000Y-132080000D01*
X93726000Y-132080000D02*
X92710000Y-132080000D01*
X92710000Y-132080000D02*
X92710000Y-132461000D01*
X92710000Y-132461000D02*
X92710000Y-133350000D01*
X96774000Y-133350000D02*
X96774000Y-132080000D01*
X93726000Y-133350000D02*
X93726000Y-132080000D01*
X96774000Y-133350000D02*
X96774000Y-132080000D01*
D11*
G36*
X62738000Y-105806000D02*
G01*
X66294000Y-105806000D01*
X66294000Y-105425000D01*
X62738000Y-105425000D01*
X62738000Y-105806000D01*
G37*
G36*
X62738000Y-96789000D02*
G01*
X66294000Y-96789000D01*
X66294000Y-96408000D01*
X62738000Y-96408000D01*
X62738000Y-96789000D01*
G37*
D10*
X68580000Y-106822000D02*
X69596000Y-105806000D01*
X69596000Y-105806000D02*
X69596000Y-102377000D01*
X69596000Y-96662000D02*
X69596000Y-99837000D01*
X59436000Y-105806000D02*
X59436000Y-102377000D01*
X59436000Y-96662000D02*
X59436000Y-99837000D01*
X65151000Y-101107000D02*
G75*
G03*
X65151000Y-101107000I-635000J0D01*
G01*
X60452000Y-109362000D02*
X60452000Y-106822000D01*
X68580000Y-109362000D02*
X60452000Y-109362000D01*
X68580000Y-106822000D02*
X68580000Y-109362000D01*
X60452000Y-106822000D02*
X68580000Y-106822000D01*
X64516000Y-100727000D02*
X64516000Y-101457000D01*
X64151000Y-101092000D02*
X64881000Y-101092000D01*
X59436000Y-105806000D02*
X60452000Y-106822000D01*
X59436000Y-96662000D02*
X60071000Y-96027000D01*
X68961000Y-96027000D02*
X69596000Y-96662000D01*
X60071000Y-96027000D02*
X68961000Y-96027000D01*
X67691000Y-101092000D02*
G75*
G03*
X67691000Y-101092000I-3175000J0D01*
G01*
D11*
G36*
X95758000Y-105664000D02*
G01*
X99314000Y-105664000D01*
X99314000Y-105283000D01*
X95758000Y-105283000D01*
X95758000Y-105664000D01*
G37*
G36*
X95758000Y-96647000D02*
G01*
X99314000Y-96647000D01*
X99314000Y-96266000D01*
X95758000Y-96266000D01*
X95758000Y-96647000D01*
G37*
D10*
X101600000Y-106680000D02*
X102616000Y-105664000D01*
X102616000Y-105664000D02*
X102616000Y-102235000D01*
X102616000Y-96520000D02*
X102616000Y-99695000D01*
X92456000Y-105664000D02*
X92456000Y-102235000D01*
X92456000Y-96520000D02*
X92456000Y-99695000D01*
X98171000Y-100965000D02*
G75*
G03*
X98171000Y-100965000I-635000J0D01*
G01*
X93472000Y-109220000D02*
X93472000Y-106680000D01*
X101600000Y-109220000D02*
X93472000Y-109220000D01*
X101600000Y-106680000D02*
X101600000Y-109220000D01*
X93472000Y-106680000D02*
X101600000Y-106680000D01*
X97536000Y-100585000D02*
X97536000Y-101315000D01*
X97171000Y-100950000D02*
X97901000Y-100950000D01*
X92456000Y-105664000D02*
X93472000Y-106680000D01*
X92456000Y-96520000D02*
X93091000Y-95885000D01*
X101981000Y-95885000D02*
X102616000Y-96520000D01*
X93091000Y-95885000D02*
X101981000Y-95885000D01*
X100711000Y-100950000D02*
G75*
G03*
X100711000Y-100950000I-3175000J0D01*
G01*
X80391000Y-101092000D02*
X81661000Y-101092000D01*
X81026000Y-101727000D02*
X81026000Y-100457000D01*
D12*
X74676000Y-102743000D02*
X74676000Y-103378000D01*
X74676000Y-103378000D02*
X87376000Y-103378000D01*
X87376000Y-103378000D02*
X87376000Y-102743000D01*
X87376000Y-102743000D02*
X88011000Y-102743000D01*
X88011000Y-102743000D02*
X88011000Y-99441000D01*
X88011000Y-99441000D02*
X87376000Y-99441000D01*
X87376000Y-99441000D02*
X87376000Y-98806000D01*
X87376000Y-98806000D02*
X74676000Y-98806000D01*
X74676000Y-98806000D02*
X74676000Y-99441000D01*
X74676000Y-99441000D02*
X74041000Y-99441000D01*
X74041000Y-99441000D02*
X74041000Y-102743000D01*
X74041000Y-102743000D02*
X74676000Y-102743000D01*
D10*
X81661000Y-101092000D02*
G75*
G03*
X81661000Y-101092000I-635000J0D01*
G01*
X80391000Y-69596000D02*
X81661000Y-69596000D01*
X81026000Y-70231000D02*
X81026000Y-68961000D01*
D12*
X74676000Y-71247000D02*
X74676000Y-71882000D01*
X74676000Y-71882000D02*
X87376000Y-71882000D01*
X87376000Y-71882000D02*
X87376000Y-71247000D01*
X87376000Y-71247000D02*
X88011000Y-71247000D01*
X88011000Y-71247000D02*
X88011000Y-67945000D01*
X88011000Y-67945000D02*
X87376000Y-67945000D01*
X87376000Y-67945000D02*
X87376000Y-67310000D01*
X87376000Y-67310000D02*
X74676000Y-67310000D01*
X74676000Y-67310000D02*
X74676000Y-67945000D01*
X74676000Y-67945000D02*
X74041000Y-67945000D01*
X74041000Y-67945000D02*
X74041000Y-71247000D01*
X74041000Y-71247000D02*
X74676000Y-71247000D01*
D10*
X81661000Y-69596000D02*
G75*
G03*
X81661000Y-69596000I-635000J0D01*
G01*
D12*
X88646000Y-131064000D02*
X73406000Y-131064000D01*
X73406000Y-131064000D02*
X73406000Y-146304000D01*
X73406000Y-146304000D02*
X88646000Y-146304000D01*
X88646000Y-146304000D02*
X88646000Y-131064000D01*
D10*
X81026000Y-138049000D02*
X81026000Y-139319000D01*
X80391000Y-138684000D02*
X81661000Y-138684000D01*
X81661000Y-138684000D02*
G75*
G03*
X81661000Y-138684000I-635000J0D01*
G01*
D11*
G36*
X62738000Y-74422000D02*
G01*
X66294000Y-74422000D01*
X66294000Y-74041000D01*
X62738000Y-74041000D01*
X62738000Y-74422000D01*
G37*
G36*
X62738000Y-65405000D02*
G01*
X66294000Y-65405000D01*
X66294000Y-65024000D01*
X62738000Y-65024000D01*
X62738000Y-65405000D01*
G37*
D10*
X68580000Y-75438000D02*
X69596000Y-74422000D01*
X69596000Y-74422000D02*
X69596000Y-70993000D01*
X69596000Y-65278000D02*
X69596000Y-68453000D01*
X59436000Y-74422000D02*
X59436000Y-70993000D01*
X59436000Y-65278000D02*
X59436000Y-68453000D01*
X65151000Y-69723000D02*
G75*
G03*
X65151000Y-69723000I-635000J0D01*
G01*
X60452000Y-77978000D02*
X60452000Y-75438000D01*
X68580000Y-77978000D02*
X60452000Y-77978000D01*
X68580000Y-75438000D02*
X68580000Y-77978000D01*
X60452000Y-75438000D02*
X68580000Y-75438000D01*
X64516000Y-69343000D02*
X64516000Y-70073000D01*
X64151000Y-69708000D02*
X64881000Y-69708000D01*
X59436000Y-74422000D02*
X60452000Y-75438000D01*
X59436000Y-65278000D02*
X60071000Y-64643000D01*
X68961000Y-64643000D02*
X69596000Y-65278000D01*
X60071000Y-64643000D02*
X68961000Y-64643000D01*
X67691000Y-69708000D02*
G75*
G03*
X67691000Y-69708000I-3175000J0D01*
G01*
D11*
G36*
X95758000Y-74422000D02*
G01*
X99314000Y-74422000D01*
X99314000Y-74041000D01*
X95758000Y-74041000D01*
X95758000Y-74422000D01*
G37*
G36*
X95758000Y-65405000D02*
G01*
X99314000Y-65405000D01*
X99314000Y-65024000D01*
X95758000Y-65024000D01*
X95758000Y-65405000D01*
G37*
D10*
X101600000Y-75438000D02*
X102616000Y-74422000D01*
X102616000Y-74422000D02*
X102616000Y-70993000D01*
X102616000Y-65278000D02*
X102616000Y-68453000D01*
X92456000Y-74422000D02*
X92456000Y-70993000D01*
X92456000Y-65278000D02*
X92456000Y-68453000D01*
X98171000Y-69723000D02*
G75*
G03*
X98171000Y-69723000I-635000J0D01*
G01*
X93472000Y-77978000D02*
X93472000Y-75438000D01*
X101600000Y-77978000D02*
X93472000Y-77978000D01*
X101600000Y-75438000D02*
X101600000Y-77978000D01*
X93472000Y-75438000D02*
X101600000Y-75438000D01*
X97536000Y-69343000D02*
X97536000Y-70073000D01*
X97171000Y-69708000D02*
X97901000Y-69708000D01*
X92456000Y-74422000D02*
X93472000Y-75438000D01*
X92456000Y-65278000D02*
X93091000Y-64643000D01*
X101981000Y-64643000D02*
X102616000Y-65278000D01*
X93091000Y-64643000D02*
X101981000Y-64643000D01*
X100711000Y-69708000D02*
G75*
G03*
X100711000Y-69708000I-3175000J0D01*
G01*
D11*
G36*
X79248000Y-90170000D02*
G01*
X82804000Y-90170000D01*
X82804000Y-89789000D01*
X79248000Y-89789000D01*
X79248000Y-90170000D01*
G37*
G36*
X79248000Y-81153000D02*
G01*
X82804000Y-81153000D01*
X82804000Y-80772000D01*
X79248000Y-80772000D01*
X79248000Y-81153000D01*
G37*
D10*
X85090000Y-91186000D02*
X86106000Y-90170000D01*
X86106000Y-90170000D02*
X86106000Y-86741000D01*
X86106000Y-81026000D02*
X86106000Y-84201000D01*
X75946000Y-90170000D02*
X75946000Y-86741000D01*
X75946000Y-81026000D02*
X75946000Y-84201000D01*
X81661000Y-85471000D02*
G75*
G03*
X81661000Y-85471000I-635000J0D01*
G01*
X76962000Y-93726000D02*
X76962000Y-91186000D01*
X85090000Y-93726000D02*
X76962000Y-93726000D01*
X85090000Y-91186000D02*
X85090000Y-93726000D01*
X76962000Y-91186000D02*
X85090000Y-91186000D01*
X81026000Y-85091000D02*
X81026000Y-85821000D01*
X80661000Y-85456000D02*
X81391000Y-85456000D01*
X75946000Y-90170000D02*
X76962000Y-91186000D01*
X75946000Y-81026000D02*
X76581000Y-80391000D01*
X85471000Y-80391000D02*
X86106000Y-81026000D01*
X76581000Y-80391000D02*
X85471000Y-80391000D01*
X84201000Y-85456000D02*
G75*
G03*
X84201000Y-85456000I-3175000J0D01*
G01*
D12*
X84328000Y-118110000D02*
X81788000Y-118110000D01*
X81788000Y-118110000D02*
X81788000Y-120650000D01*
X81788000Y-120650000D02*
X84328000Y-120650000D01*
X84328000Y-120650000D02*
X84328000Y-118110000D01*
X84328000Y-120650000D02*
X84328000Y-121920000D01*
X84328000Y-121920000D02*
X81788000Y-121920000D01*
X81788000Y-121920000D02*
X81788000Y-120650000D01*
X87884000Y-118110000D02*
X85344000Y-118110000D01*
X85344000Y-118110000D02*
X85344000Y-120650000D01*
X85344000Y-120650000D02*
X87884000Y-120650000D01*
X87884000Y-120650000D02*
X87884000Y-118110000D01*
X87884000Y-120650000D02*
X87884000Y-121920000D01*
X87884000Y-121920000D02*
X85344000Y-121920000D01*
X85344000Y-121920000D02*
X85344000Y-120650000D01*
X80264000Y-126746000D02*
X77724000Y-126746000D01*
X77724000Y-126746000D02*
X77724000Y-129286000D01*
X77724000Y-129286000D02*
X80264000Y-129286000D01*
X80264000Y-129286000D02*
X80264000Y-126746000D01*
X80264000Y-129286000D02*
X80264000Y-130556000D01*
X80264000Y-130556000D02*
X77724000Y-130556000D01*
X77724000Y-130556000D02*
X77724000Y-129286000D01*
X87884000Y-126746000D02*
X85344000Y-126746000D01*
X85344000Y-126746000D02*
X85344000Y-129286000D01*
X85344000Y-129286000D02*
X87884000Y-129286000D01*
X87884000Y-129286000D02*
X87884000Y-126746000D01*
X87884000Y-129286000D02*
X87884000Y-130556000D01*
X87884000Y-130556000D02*
X85344000Y-130556000D01*
X85344000Y-130556000D02*
X85344000Y-129286000D01*
X72644000Y-126746000D02*
X70104000Y-126746000D01*
X70104000Y-126746000D02*
X70104000Y-129286000D01*
X70104000Y-129286000D02*
X72644000Y-129286000D01*
X72644000Y-129286000D02*
X72644000Y-126746000D01*
X72644000Y-129286000D02*
X72644000Y-130556000D01*
X72644000Y-130556000D02*
X70104000Y-130556000D01*
X70104000Y-130556000D02*
X70104000Y-129286000D01*
X91948000Y-126746000D02*
X89408000Y-126746000D01*
X89408000Y-126746000D02*
X89408000Y-129286000D01*
X89408000Y-129286000D02*
X91948000Y-129286000D01*
X91948000Y-129286000D02*
X91948000Y-126746000D01*
X91948000Y-129286000D02*
X91948000Y-130556000D01*
X91948000Y-130556000D02*
X89408000Y-130556000D01*
X89408000Y-130556000D02*
X89408000Y-129286000D01*
X84328000Y-126746000D02*
X81788000Y-126746000D01*
X81788000Y-126746000D02*
X81788000Y-129286000D01*
X81788000Y-129286000D02*
X84328000Y-129286000D01*
X84328000Y-129286000D02*
X84328000Y-126746000D01*
X84328000Y-129286000D02*
X84328000Y-130556000D01*
X84328000Y-130556000D02*
X81788000Y-130556000D01*
X81788000Y-130556000D02*
X81788000Y-129286000D01*
X76708000Y-126746000D02*
X74168000Y-126746000D01*
X74168000Y-126746000D02*
X74168000Y-129286000D01*
X74168000Y-129286000D02*
X76708000Y-129286000D01*
X76708000Y-129286000D02*
X76708000Y-126746000D01*
X76708000Y-129286000D02*
X76708000Y-130556000D01*
X76708000Y-130556000D02*
X74168000Y-130556000D01*
X74168000Y-130556000D02*
X74168000Y-129286000D01*
X80264000Y-118110000D02*
X77724000Y-118110000D01*
X77724000Y-118110000D02*
X77724000Y-120650000D01*
X77724000Y-120650000D02*
X80264000Y-120650000D01*
X80264000Y-120650000D02*
X80264000Y-118110000D01*
X80264000Y-120650000D02*
X80264000Y-121920000D01*
X80264000Y-121920000D02*
X77724000Y-121920000D01*
X77724000Y-121920000D02*
X77724000Y-120650000D01*
X63246000Y-119126000D02*
X60706000Y-119126000D01*
X60706000Y-119126000D02*
X60706000Y-121666000D01*
X60706000Y-121666000D02*
X63246000Y-121666000D01*
X63246000Y-121666000D02*
X63246000Y-119126000D01*
X63246000Y-121666000D02*
X63246000Y-122936000D01*
X63246000Y-122936000D02*
X60706000Y-122936000D01*
X60706000Y-122936000D02*
X60706000Y-121666000D01*
X80264000Y-63246000D02*
X77724000Y-63246000D01*
X77724000Y-63246000D02*
X77724000Y-65786000D01*
X77724000Y-65786000D02*
X80264000Y-65786000D01*
X80264000Y-65786000D02*
X80264000Y-63246000D01*
X80264000Y-65786000D02*
X80264000Y-67056000D01*
X80264000Y-67056000D02*
X77724000Y-67056000D01*
X77724000Y-67056000D02*
X77724000Y-65786000D01*
X84582000Y-63246000D02*
X82042000Y-63246000D01*
X82042000Y-63246000D02*
X82042000Y-65786000D01*
X82042000Y-65786000D02*
X84582000Y-65786000D01*
X84582000Y-65786000D02*
X84582000Y-63246000D01*
X84582000Y-65786000D02*
X84582000Y-67056000D01*
X84582000Y-67056000D02*
X82042000Y-67056000D01*
X82042000Y-67056000D02*
X82042000Y-65786000D01*
X76708000Y-118110000D02*
X74168000Y-118110000D01*
X74168000Y-118110000D02*
X74168000Y-120650000D01*
X74168000Y-120650000D02*
X76708000Y-120650000D01*
X76708000Y-120650000D02*
X76708000Y-118110000D01*
X76708000Y-120650000D02*
X76708000Y-121920000D01*
X76708000Y-121920000D02*
X74168000Y-121920000D01*
X74168000Y-121920000D02*
X74168000Y-120650000D01*
D10*
X98679000Y-105156000D02*
X97409000Y-105156000D01*
X98044000Y-105791000D02*
X98044000Y-104521000D01*
X95504000Y-106807000D02*
X96139000Y-106807000D01*
X95504000Y-103505000D02*
X95504000Y-106807000D01*
X96139000Y-103505000D02*
X95504000Y-103505000D01*
X99822000Y-106426000D02*
X96520000Y-106426000D01*
X99822000Y-103886000D02*
X96520000Y-103886000D01*
X100711000Y-105664000D02*
X100711000Y-104648000D01*
X96139000Y-106807000D02*
G75*
G02*
X96520000Y-106426000I381000J0D01*
G01*
X96139000Y-103505000D02*
G75*
G03*
X96520000Y-103886000I381000J0D01*
G01*
X99821999Y-103886001D02*
G75*
G02*
X100711000Y-104648000I63501J-825500D01*
G01*
X100711001Y-105663999D02*
G75*
G02*
X99822000Y-106426000I-825501J63500D01*
G01*
X97409000Y-102616000D02*
X98679000Y-102616000D01*
X98044000Y-101981000D02*
X98044000Y-103251000D01*
X100584000Y-100965000D02*
X99949000Y-100965000D01*
X100584000Y-104267000D02*
X100584000Y-100965000D01*
X99949000Y-104267000D02*
X100584000Y-104267000D01*
X96266000Y-101346000D02*
X99568000Y-101346000D01*
X96266000Y-103886000D02*
X99568000Y-103886000D01*
X95377000Y-102108000D02*
X95377000Y-103124000D01*
X99949000Y-100965000D02*
G75*
G02*
X99568000Y-101346000I-381000J0D01*
G01*
X99949000Y-104267000D02*
G75*
G03*
X99568000Y-103886000I-381000J0D01*
G01*
X96266001Y-103885999D02*
G75*
G02*
X95377000Y-103124000I-63501J825500D01*
G01*
X95376999Y-102108001D02*
G75*
G02*
X96266000Y-101346000I825501J-63500D01*
G01*
D13*
X95853968Y-133069390D02*
X95853968Y-132297230D01*
X95670120Y-132297230D01*
X95559812Y-132334000D01*
X95486273Y-132407539D01*
X95449503Y-132481078D01*
X95412734Y-132628156D01*
X95412734Y-132738464D01*
X95449503Y-132885542D01*
X95486273Y-132959081D01*
X95559812Y-133032620D01*
X95670120Y-133069390D01*
X95853968Y-133069390D01*
X95155347Y-132297230D02*
X94677343Y-132297230D01*
X94934730Y-132591386D01*
X94824421Y-132591386D01*
X94750882Y-132628156D01*
X94714113Y-132664925D01*
X94677343Y-132738464D01*
X94677343Y-132922312D01*
X94714113Y-132995851D01*
X94750882Y-133032620D01*
X94824421Y-133069390D01*
X95045038Y-133069390D01*
X95118577Y-133032620D01*
X95155347Y-132995851D01*
D10*
X80713640Y-105231595D02*
X80541283Y-105289047D01*
X80254021Y-105289047D01*
X80139116Y-105231595D01*
X80081664Y-105174142D01*
X80024211Y-105059238D01*
X80024211Y-104944333D01*
X80081664Y-104829428D01*
X80139116Y-104771976D01*
X80254021Y-104714523D01*
X80483830Y-104657071D01*
X80598735Y-104599619D01*
X80656188Y-104542166D01*
X80713640Y-104427261D01*
X80713640Y-104312357D01*
X80656188Y-104197452D01*
X80598735Y-104140000D01*
X80483830Y-104082547D01*
X80196569Y-104082547D01*
X80024211Y-104140000D01*
X79622045Y-104082547D02*
X79334783Y-105289047D01*
X79104973Y-104427261D01*
X78875164Y-105289047D01*
X78587902Y-104082547D01*
X78185735Y-104197452D02*
X78128283Y-104140000D01*
X78013378Y-104082547D01*
X77726116Y-104082547D01*
X77611211Y-104140000D01*
X77553759Y-104197452D01*
X77496307Y-104312357D01*
X77496307Y-104427261D01*
X77553759Y-104599619D01*
X78243188Y-105289047D01*
X77496307Y-105289047D01*
X80713640Y-73735595D02*
X80541283Y-73793047D01*
X80254021Y-73793047D01*
X80139116Y-73735595D01*
X80081664Y-73678142D01*
X80024211Y-73563238D01*
X80024211Y-73448333D01*
X80081664Y-73333428D01*
X80139116Y-73275976D01*
X80254021Y-73218523D01*
X80483830Y-73161071D01*
X80598735Y-73103619D01*
X80656188Y-73046166D01*
X80713640Y-72931261D01*
X80713640Y-72816357D01*
X80656188Y-72701452D01*
X80598735Y-72644000D01*
X80483830Y-72586547D01*
X80196569Y-72586547D01*
X80024211Y-72644000D01*
X79622045Y-72586547D02*
X79334783Y-73793047D01*
X79104973Y-72931261D01*
X78875164Y-73793047D01*
X78587902Y-72586547D01*
X77496307Y-73793047D02*
X78185735Y-73793047D01*
X77841021Y-73793047D02*
X77841021Y-72586547D01*
X77955926Y-72758904D01*
X78070830Y-72873809D01*
X78185735Y-72931261D01*
M02*
