G04 #@! TF.GenerationSoftware,KiCad,Pcbnew,(5.1.6-0-10_14)*
G04 #@! TF.CreationDate,2020-10-04T21:53:57+02:00*
G04 #@! TF.ProjectId,ds,64732e6b-6963-4616-945f-706362585858,rev?*
G04 #@! TF.SameCoordinates,Original*
G04 #@! TF.FileFunction,Soldermask,Top*
G04 #@! TF.FilePolarity,Negative*
%FSLAX46Y46*%
G04 Gerber Fmt 4.6, Leading zero omitted, Abs format (unit mm)*
G04 Created by KiCad (PCBNEW (5.1.6-0-10_14)) date 2020-10-04 21:53:57*
%MOMM*%
%LPD*%
G01*
G04 APERTURE LIST*
%ADD10C,0.300000*%
%ADD11C,0.150000*%
%ADD12R,2.100000X2.100000*%
%ADD13O,2.100000X2.100000*%
%ADD14C,0.600000*%
%ADD15O,2.350000X2.350000*%
%ADD16O,2.030400X2.030400*%
%ADD17R,2.030400X2.030400*%
%ADD18O,3.516000X3.516000*%
%ADD19R,3.516000X3.516000*%
%ADD20R,3.916000X3.916000*%
%ADD21O,3.916000X3.916000*%
%ADD22O,2.132000X2.132000*%
G04 APERTURE END LIST*
D10*
X86340500Y-64750071D02*
X86340500Y-63250071D01*
X86697642Y-63250071D01*
X86911928Y-63321500D01*
X87054785Y-63464357D01*
X87126214Y-63607214D01*
X87197642Y-63892928D01*
X87197642Y-64107214D01*
X87126214Y-64392928D01*
X87054785Y-64535785D01*
X86911928Y-64678642D01*
X86697642Y-64750071D01*
X86340500Y-64750071D01*
X87769071Y-64678642D02*
X87983357Y-64750071D01*
X88340500Y-64750071D01*
X88483357Y-64678642D01*
X88554785Y-64607214D01*
X88626214Y-64464357D01*
X88626214Y-64321500D01*
X88554785Y-64178642D01*
X88483357Y-64107214D01*
X88340500Y-64035785D01*
X88054785Y-63964357D01*
X87911928Y-63892928D01*
X87840500Y-63821500D01*
X87769071Y-63678642D01*
X87769071Y-63535785D01*
X87840500Y-63392928D01*
X87911928Y-63321500D01*
X88054785Y-63250071D01*
X88411928Y-63250071D01*
X88626214Y-63321500D01*
X89269071Y-64178642D02*
X90411928Y-64178642D01*
X91911928Y-64750071D02*
X91054785Y-64750071D01*
X91483357Y-64750071D02*
X91483357Y-63250071D01*
X91340500Y-63464357D01*
X91197642Y-63607214D01*
X91054785Y-63678642D01*
D11*
X72633619Y-140727333D02*
X71533619Y-140727333D01*
X71952666Y-140727333D02*
X71900285Y-140622571D01*
X71900285Y-140413047D01*
X71952666Y-140308285D01*
X72005047Y-140255904D01*
X72109809Y-140203523D01*
X72424095Y-140203523D01*
X72528857Y-140255904D01*
X72581238Y-140308285D01*
X72633619Y-140413047D01*
X72633619Y-140622571D01*
X72581238Y-140727333D01*
X72633619Y-139574952D02*
X72581238Y-139679714D01*
X72528857Y-139732095D01*
X72424095Y-139784476D01*
X72109809Y-139784476D01*
X72005047Y-139732095D01*
X71952666Y-139679714D01*
X71900285Y-139574952D01*
X71900285Y-139417809D01*
X71952666Y-139313047D01*
X72005047Y-139260666D01*
X72109809Y-139208285D01*
X72424095Y-139208285D01*
X72528857Y-139260666D01*
X72581238Y-139313047D01*
X72633619Y-139417809D01*
X72633619Y-139574952D01*
X72633619Y-138736857D02*
X71533619Y-138736857D01*
X71952666Y-138736857D02*
X71900285Y-138632095D01*
X71900285Y-138422571D01*
X71952666Y-138317809D01*
X72005047Y-138265428D01*
X72109809Y-138213047D01*
X72424095Y-138213047D01*
X72528857Y-138265428D01*
X72581238Y-138317809D01*
X72633619Y-138422571D01*
X72633619Y-138632095D01*
X72581238Y-138736857D01*
X72633619Y-137741619D02*
X71900285Y-137741619D01*
X72109809Y-137741619D02*
X72005047Y-137689238D01*
X71952666Y-137636857D01*
X71900285Y-137532095D01*
X71900285Y-137427333D01*
X72633619Y-136903523D02*
X72581238Y-137008285D01*
X72528857Y-137060666D01*
X72424095Y-137113047D01*
X72109809Y-137113047D01*
X72005047Y-137060666D01*
X71952666Y-137008285D01*
X71900285Y-136903523D01*
X71900285Y-136746380D01*
X71952666Y-136641619D01*
X72005047Y-136589238D01*
X72109809Y-136536857D01*
X72424095Y-136536857D01*
X72528857Y-136589238D01*
X72581238Y-136641619D01*
X72633619Y-136746380D01*
X72633619Y-136903523D01*
X71900285Y-136170190D02*
X72633619Y-135908285D01*
X71900285Y-135646380D01*
X72633619Y-134651142D02*
X72633619Y-135279714D01*
X72633619Y-134965428D02*
X71533619Y-134965428D01*
X71690761Y-135070190D01*
X71795523Y-135174952D01*
X71847904Y-135279714D01*
X72633619Y-134127333D02*
X72633619Y-133917809D01*
X72581238Y-133813047D01*
X72528857Y-133760666D01*
X72371714Y-133655904D01*
X72162190Y-133603523D01*
X71743142Y-133603523D01*
X71638380Y-133655904D01*
X71586000Y-133708285D01*
X71533619Y-133813047D01*
X71533619Y-134022571D01*
X71586000Y-134127333D01*
X71638380Y-134179714D01*
X71743142Y-134232095D01*
X72005047Y-134232095D01*
X72109809Y-134179714D01*
X72162190Y-134127333D01*
X72214571Y-134022571D01*
X72214571Y-133813047D01*
X72162190Y-133708285D01*
X72109809Y-133655904D01*
X72005047Y-133603523D01*
X72005047Y-132974952D02*
X71952666Y-133079714D01*
X71900285Y-133132095D01*
X71795523Y-133184476D01*
X71743142Y-133184476D01*
X71638380Y-133132095D01*
X71586000Y-133079714D01*
X71533619Y-132974952D01*
X71533619Y-132765428D01*
X71586000Y-132660666D01*
X71638380Y-132608285D01*
X71743142Y-132555904D01*
X71795523Y-132555904D01*
X71900285Y-132608285D01*
X71952666Y-132660666D01*
X72005047Y-132765428D01*
X72005047Y-132974952D01*
X72057428Y-133079714D01*
X72109809Y-133132095D01*
X72214571Y-133184476D01*
X72424095Y-133184476D01*
X72528857Y-133132095D01*
X72581238Y-133079714D01*
X72633619Y-132974952D01*
X72633619Y-132765428D01*
X72581238Y-132660666D01*
X72528857Y-132608285D01*
X72424095Y-132555904D01*
X72214571Y-132555904D01*
X72109809Y-132608285D01*
X72057428Y-132660666D01*
X72005047Y-132765428D01*
X72633619Y-132032095D02*
X72633619Y-131822571D01*
X72581238Y-131717809D01*
X72528857Y-131665428D01*
X72371714Y-131560666D01*
X72162190Y-131508285D01*
X71743142Y-131508285D01*
X71638380Y-131560666D01*
X71586000Y-131613047D01*
X71533619Y-131717809D01*
X71533619Y-131927333D01*
X71586000Y-132032095D01*
X71638380Y-132084476D01*
X71743142Y-132136857D01*
X72005047Y-132136857D01*
X72109809Y-132084476D01*
X72162190Y-132032095D01*
X72214571Y-131927333D01*
X72214571Y-131717809D01*
X72162190Y-131613047D01*
X72109809Y-131560666D01*
X72005047Y-131508285D01*
D12*
X103568500Y-64262000D03*
D13*
X95948500Y-64262000D03*
D14*
X74410000Y-125210000D03*
X72910000Y-125210000D03*
X72910000Y-123710000D03*
X74410000Y-123710000D03*
X73660000Y-125210000D03*
X73660000Y-123710000D03*
X89650000Y-125210000D03*
X88150000Y-125210000D03*
X88150000Y-123710000D03*
X89650000Y-123710000D03*
X88900000Y-125210000D03*
X88900000Y-123710000D03*
D13*
X93980000Y-134620000D03*
D12*
X96520000Y-134620000D03*
D15*
X69516000Y-101092000D03*
X59516000Y-101092000D03*
D16*
X61976000Y-108092000D03*
X64516000Y-108092000D03*
D17*
X67056000Y-108092000D03*
D15*
X102536000Y-100950000D03*
X92536000Y-100950000D03*
D16*
X94996000Y-107950000D03*
X97536000Y-107950000D03*
D17*
X100076000Y-107950000D03*
D13*
X77216000Y-74168000D03*
X79756000Y-74168000D03*
X82296000Y-74168000D03*
X84836000Y-74168000D03*
X84836000Y-81788000D03*
X82296000Y-81788000D03*
X79756000Y-81788000D03*
D12*
X77216000Y-81788000D03*
D18*
X85725000Y-101092000D03*
X81026000Y-101092000D03*
D19*
X76327000Y-101092000D03*
D18*
X85725000Y-69596000D03*
X81026000Y-69596000D03*
D19*
X76327000Y-69596000D03*
D20*
X75946000Y-133604000D03*
D21*
X75946000Y-138684000D03*
X75946000Y-143764000D03*
X81026000Y-133604000D03*
X81026000Y-138684000D03*
X81026000Y-143764000D03*
X86106000Y-133604000D03*
X86106000Y-138684000D03*
X86106000Y-143764000D03*
D15*
X69516000Y-69708000D03*
X59516000Y-69708000D03*
D16*
X61976000Y-76708000D03*
X64516000Y-76708000D03*
D17*
X67056000Y-76708000D03*
D15*
X102536000Y-69708000D03*
X92536000Y-69708000D03*
D16*
X94996000Y-76708000D03*
X97536000Y-76708000D03*
D17*
X100076000Y-76708000D03*
D15*
X86026000Y-85456000D03*
X76026000Y-85456000D03*
D16*
X78486000Y-92456000D03*
X81026000Y-92456000D03*
D17*
X83566000Y-92456000D03*
D13*
X97536000Y-119380000D03*
X89916000Y-119380000D03*
X97536000Y-116840000D03*
X89916000Y-116840000D03*
X97536000Y-114300000D03*
X89916000Y-114300000D03*
X97536000Y-111760000D03*
X89916000Y-111760000D03*
X93980000Y-87376000D03*
X101600000Y-87376000D03*
X104648000Y-71882000D03*
X104648000Y-79502000D03*
X93980000Y-82296000D03*
X101600000Y-82296000D03*
X101600000Y-92456000D03*
X93980000Y-92456000D03*
X93980000Y-84836000D03*
X101600000Y-84836000D03*
X101600000Y-89916000D03*
X93980000Y-89916000D03*
X87376000Y-81788000D03*
X87376000Y-74168000D03*
X77470000Y-95250000D03*
X85090000Y-95250000D03*
X68072000Y-135890000D03*
X68072000Y-128270000D03*
D16*
X67564000Y-140208000D03*
X65024000Y-142748000D03*
X67564000Y-145288000D03*
D13*
X77216000Y-88392000D03*
X84836000Y-88392000D03*
X64770000Y-82550000D03*
X57150000Y-82550000D03*
X65024000Y-85344000D03*
X57404000Y-85344000D03*
X58420000Y-105156000D03*
X58420000Y-112776000D03*
X64770000Y-79756000D03*
X57150000Y-79756000D03*
X65024000Y-92456000D03*
X57404000Y-92456000D03*
X65024000Y-94996000D03*
X57404000Y-94996000D03*
X65024000Y-87884000D03*
X57404000Y-87884000D03*
X71120000Y-111760000D03*
X63500000Y-111760000D03*
X63500000Y-114300000D03*
X71120000Y-114300000D03*
X63500000Y-116840000D03*
X71120000Y-116840000D03*
X64770000Y-119634000D03*
X72390000Y-119634000D03*
X73660000Y-113030000D03*
X81280000Y-113030000D03*
X81280000Y-115570000D03*
X73660000Y-115570000D03*
D17*
X102108000Y-110744000D03*
D16*
X102108000Y-113284000D03*
X102108000Y-115824000D03*
X68580000Y-92710000D03*
X68580000Y-95250000D03*
D17*
X68580000Y-97790000D03*
D16*
X58420000Y-115570000D03*
X58420000Y-118110000D03*
D17*
X58420000Y-120650000D03*
D22*
X83058000Y-119380000D03*
X86614000Y-119380000D03*
X78994000Y-128016000D03*
X86614000Y-128016000D03*
X71374000Y-128016000D03*
X90678000Y-128016000D03*
X83058000Y-128016000D03*
X75438000Y-128016000D03*
X78994000Y-119380000D03*
X61976000Y-120396000D03*
X78994000Y-64516000D03*
X83312000Y-64516000D03*
X75438000Y-119380000D03*
D13*
X96774000Y-105156000D03*
D12*
X99314000Y-105156000D03*
X90170000Y-107950000D03*
D13*
X85090000Y-107950000D03*
D12*
X99060000Y-100076000D03*
D13*
X99060000Y-94996000D03*
X99314000Y-102616000D03*
D12*
X96774000Y-102616000D03*
X85090000Y-105410000D03*
D13*
X90170000Y-105410000D03*
D12*
X96520000Y-94996000D03*
D13*
X96520000Y-100076000D03*
D12*
X77470000Y-107950000D03*
D13*
X82550000Y-107950000D03*
D12*
X82550000Y-105410000D03*
D13*
X77470000Y-105410000D03*
D12*
X69850000Y-107950000D03*
D13*
X74930000Y-107950000D03*
D12*
X74930000Y-105410000D03*
D13*
X69850000Y-105410000D03*
D12*
X69850000Y-80010000D03*
D13*
X69850000Y-74930000D03*
D16*
X104140000Y-119888000D03*
D17*
X101600000Y-119888000D03*
D16*
X85344000Y-114808000D03*
D17*
X85344000Y-112268000D03*
D13*
X104648000Y-82296000D03*
X104648000Y-87376000D03*
X104648000Y-90932000D03*
X104648000Y-96012000D03*
X90170000Y-92710000D03*
X90170000Y-97790000D03*
X90170000Y-88900000D03*
X90170000Y-83820000D03*
X90170000Y-74930000D03*
X90170000Y-80010000D03*
D16*
X64770000Y-101600000D03*
D17*
X64770000Y-99060000D03*
D13*
X64770000Y-67310000D03*
X64770000Y-72390000D03*
X97790000Y-67310000D03*
X97790000Y-72390000D03*
X73660000Y-74930000D03*
X73660000Y-80010000D03*
X72390000Y-82550000D03*
X67310000Y-82550000D03*
X73660000Y-96520000D03*
X73660000Y-91440000D03*
X71120000Y-85090000D03*
X71120000Y-90170000D03*
X68580000Y-90170000D03*
X68580000Y-85090000D03*
D16*
X58420000Y-64770000D03*
D17*
X60960000Y-64770000D03*
D13*
X80010000Y-110490000D03*
X74930000Y-110490000D03*
D16*
X68580000Y-64770000D03*
D17*
X71120000Y-64770000D03*
M02*
