M48
; DRILL file {KiCad (5.1.6-0-10_14)} date Sunday, October 04, 2020 at 09:54:00 PM
; FORMAT={-:-/ absolute / inch / decimal}
; #@! TF.CreationDate,2020-10-04T21:54:00+02:00
; #@! TF.GenerationSoftware,Kicad,Pcbnew,(5.1.6-0-10_14)
; #@! TF.FileFunction,Plated,1,2,PTH
FMAT,2
INCH
T1C0.0394
T2C0.0433
T3C0.0472
T4C0.0591
T5C0.0945
T6C0.1102
%
G90
G05
T1
X3.54Y-4.4
X3.84Y-4.4
X3.7Y-3.64
X4.0Y-3.64
X2.25Y-3.25
X2.55Y-3.25
X2.55Y-3.9
X2.55Y-4.0
X3.35Y-4.15
X3.55Y-4.15
X2.26Y-3.64
X2.56Y-3.64
X3.35Y-4.25
X3.55Y-4.25
X2.5Y-4.4
X2.8Y-4.4
X2.3Y-4.55
X2.3Y-4.65
X2.3Y-4.75
X2.9Y-3.6
X2.9Y-3.8
X4.0Y-4.72
X4.1Y-4.72
X3.55Y-2.95
X3.55Y-3.15
X3.04Y-2.92
X3.04Y-3.22
X3.14Y-2.92
X3.14Y-3.22
X3.24Y-2.92
X3.24Y-3.22
X3.34Y-2.92
X3.34Y-3.22
X3.54Y-4.5
X3.84Y-4.5
X2.7Y-2.55
X2.8Y-2.55
X3.7Y-3.24
X4.0Y-3.24
X3.05Y-3.75
X3.35Y-3.75
X2.65Y-3.25
X2.85Y-3.25
X2.75Y-2.95
X2.75Y-3.15
X3.7Y-5.3
X3.8Y-5.3
X2.25Y-3.14
X2.55Y-3.14
X3.55Y-3.3
X3.55Y-3.5
X2.56Y-5.62
X2.66Y-5.52
X2.66Y-5.72
X3.05Y-4.25
X3.25Y-4.25
X3.81Y-4.04
X3.91Y-4.04
X2.95Y-4.35
X3.15Y-4.35
X2.5Y-4.6
X2.8Y-4.6
X2.9Y-2.95
X2.9Y-3.15
X4.02Y-4.36
X4.02Y-4.46
X4.02Y-4.56
X3.55Y-3.65
X3.55Y-3.85
X3.04Y-3.48
X3.34Y-3.48
X3.44Y-2.92
X3.44Y-3.22
X2.3Y-4.14
X2.3Y-4.44
X3.85Y-2.65
X3.85Y-2.85
X2.68Y-5.05
X2.68Y-5.35
X2.26Y-3.46
X2.56Y-3.46
X3.7775Y-2.53
X4.0775Y-2.53
X4.12Y-3.58
X4.12Y-3.78
X3.81Y-4.14
X3.91Y-4.14
X2.75Y-4.25
X2.95Y-4.25
X2.5Y-4.5
X2.8Y-4.5
X2.9Y-4.55
X3.2Y-4.55
X3.54Y-4.6
X3.84Y-4.6
X2.55Y-2.65
X2.55Y-2.85
X4.12Y-2.83
X4.12Y-3.13
X4.12Y-3.24
X4.12Y-3.44
X3.7Y-3.54
X4.0Y-3.54
X2.7Y-3.65
X2.7Y-3.75
X2.7Y-3.85
X3.05Y-4.15
X3.25Y-4.15
X2.26Y-3.74
X2.56Y-3.74
X2.9Y-4.45
X3.2Y-4.45
X2.3Y-2.55
X2.4Y-2.55
X3.54Y-4.7
X3.84Y-4.7
X3.7Y-3.44
X4.0Y-3.44
X3.7Y-3.34
X4.0Y-3.34
X2.26Y-3.36
X2.56Y-3.36
X3.36Y-4.42
X3.36Y-4.52
X2.7Y-3.35
X2.7Y-3.55
X2.75Y-4.15
X2.95Y-4.15
X3.8Y-3.74
X3.8Y-3.94
X3.9Y-3.74
X3.9Y-3.94
X2.55Y-4.71
X2.85Y-4.71
X2.8Y-3.35
X2.8Y-3.55
T2
X2.44Y-4.2556
X2.54Y-4.2556
X2.64Y-4.2556
X3.74Y-4.25
X3.84Y-4.25
X3.94Y-4.25
X2.44Y-3.02
X2.54Y-3.02
X2.64Y-3.02
X3.74Y-3.02
X3.84Y-3.02
X3.94Y-3.02
X3.09Y-3.64
X3.19Y-3.64
X3.29Y-3.64
T3
X3.27Y-5.04
X3.41Y-5.04
X2.97Y-5.04
X2.97Y-4.7
X2.81Y-5.04
X3.11Y-4.7
X3.27Y-4.7
X3.41Y-4.7
X3.57Y-5.04
X2.44Y-4.74
X3.11Y-2.54
X3.11Y-5.04
X3.28Y-2.54
T4
X2.3431Y-3.98
X2.7369Y-3.98
X3.6431Y-3.9744
X4.0369Y-3.9744
X2.3431Y-2.7444
X2.7369Y-2.7444
X3.6431Y-2.7444
X4.0369Y-2.7444
X2.9931Y-3.3644
X3.3869Y-3.3644
T5
X3.005Y-3.98
X3.19Y-3.98
X3.375Y-3.98
X3.005Y-2.74
X3.19Y-2.74
X3.375Y-2.74
T6
X2.99Y-5.26
X2.99Y-5.46
X2.99Y-5.66
X3.19Y-5.26
X3.19Y-5.46
X3.19Y-5.66
X3.39Y-5.26
X3.39Y-5.46
X3.39Y-5.66
T0
M30
